<svg width="40" height="40" viewBox="0 0 40 40" fill="none" xmlns="http://www.w3.org/2000/svg">
<rect width="40" height="40" rx="20" fill="#3B46F1"/>
<path d="M21.8961 12.9636C21.9173 12.8843 21.954 12.8099 22.0039 12.7448C22.0539 12.6796 22.1162 12.6249 22.1873 12.5839C22.2584 12.5428 22.3369 12.5162 22.4183 12.5055C22.4997 12.4947 22.5824 12.5002 22.6617 12.5214C23.8204 12.8237 24.8775 13.4294 25.7242 14.2761C26.5709 15.1229 27.1766 16.18 27.4789 17.3386C27.5002 17.4179 27.5056 17.5006 27.4949 17.582C27.4842 17.6634 27.4575 17.7419 27.4165 17.813C27.3754 17.8841 27.3207 17.9465 27.2556 17.9964C27.1904 18.0464 27.116 18.083 27.0367 18.1042C26.9839 18.1181 26.9296 18.1252 26.875 18.1253C26.7373 18.1253 26.6034 18.0798 26.4942 17.9959C26.385 17.912 26.3066 17.7944 26.2711 17.6613C26.0245 16.7154 25.5302 15.8524 24.8391 15.1613C24.1479 14.4701 23.2849 13.9758 22.3391 13.7292C22.2597 13.7081 22.1852 13.6715 22.12 13.6216C22.0548 13.5717 22 13.5094 21.9589 13.4383C21.9177 13.3672 21.891 13.2886 21.8802 13.2072C21.8695 13.1257 21.8749 13.043 21.8961 12.9636ZM21.7141 16.2292C22.7914 16.5167 23.4836 17.2089 23.7711 18.2863C23.8066 18.4194 23.885 18.537 23.9942 18.6209C24.1034 18.7048 24.2373 18.7503 24.375 18.7503C24.4296 18.7502 24.4839 18.7431 24.5367 18.7292C24.616 18.708 24.6904 18.6714 24.7556 18.6214C24.8207 18.5715 24.8754 18.5091 24.9165 18.438C24.9575 18.3669 24.9842 18.2884 24.9949 18.207C25.0056 18.1256 25.0002 18.0429 24.9789 17.9636C24.5789 16.4667 23.5336 15.4214 22.0367 15.0214C21.9574 15.0002 21.8747 14.9949 21.7933 15.0057C21.712 15.0164 21.6335 15.0431 21.5624 15.0842C21.4914 15.1253 21.4291 15.18 21.3792 15.2452C21.3293 15.3103 21.2927 15.3847 21.2715 15.464C21.2503 15.5433 21.2449 15.626 21.2557 15.7074C21.2665 15.7888 21.2932 15.8672 21.3343 15.9383C21.3754 16.0093 21.4301 16.0716 21.4952 16.1215C21.5604 16.1715 21.6348 16.2081 21.7141 16.2292ZM28.1156 23.6785C27.9763 24.7371 27.4564 25.7088 26.6531 26.4121C25.8497 27.1154 24.8177 27.5022 23.75 27.5003C17.5469 27.5003 12.5 22.4535 12.5 16.2503C12.4981 15.1826 12.8849 14.1507 13.5882 13.3473C14.2916 12.5439 15.2633 12.024 16.3219 11.8847C16.5896 11.852 16.8607 11.9068 17.0947 12.0408C17.3287 12.1749 17.5131 12.381 17.6203 12.6285L19.2703 16.312V16.3214C19.3524 16.5108 19.3863 16.7176 19.369 16.9234C19.3517 17.1291 19.2837 17.3273 19.1711 17.5003C19.157 17.5214 19.1422 17.541 19.1266 17.5605L17.5 19.4886C18.0852 20.6777 19.3289 21.9105 20.5336 22.4972L22.4352 20.8792C22.4538 20.8635 22.4734 20.8489 22.4938 20.8355C22.6666 20.7202 22.8655 20.6498 23.0725 20.6307C23.2794 20.6116 23.4878 20.6444 23.6789 20.7261L23.6891 20.7308L27.3695 22.38C27.6174 22.4869 27.8241 22.6711 27.9585 22.9051C28.093 23.1392 28.1481 23.4105 28.1156 23.6785ZM26.875 23.5222C26.875 23.5222 26.8695 23.5222 26.8664 23.5222L23.1945 21.8777L21.2922 23.4956C21.2737 23.5113 21.2544 23.5259 21.2344 23.5394C21.0545 23.6594 20.8466 23.7307 20.6309 23.7463C20.4152 23.7619 20.1992 23.7213 20.0039 23.6285C18.5406 22.9214 17.082 21.4738 16.3742 20.0261C16.2805 19.8322 16.2384 19.6175 16.2521 19.4026C16.2658 19.1877 16.3348 18.98 16.4524 18.7995C16.4656 18.7784 16.4805 18.7583 16.4969 18.7394L18.125 16.8089L16.4844 13.137C16.4841 13.1339 16.4841 13.1308 16.4844 13.1277C15.7268 13.2265 15.0312 13.5981 14.5278 14.1729C14.0245 14.7477 13.748 15.4863 13.75 16.2503C13.7529 18.9016 14.8074 21.4435 16.6821 23.3182C18.5569 25.1929 21.0987 26.2474 23.75 26.2503C24.5136 26.253 25.2519 25.9774 25.8271 25.4751C26.4022 24.9729 26.7747 24.2784 26.875 23.5214V23.5222Z" fill="white"/>
</svg>
