<svg width="21" height="20" viewBox="0 0 21 20" fill="none" xmlns="http://www.w3.org/2000/svg">
<path d="M16.7882 14.962C16.9644 15.1381 17.0633 15.377 17.0633 15.626C17.0633 15.8751 16.9644 16.114 16.7882 16.2901C16.6121 16.4662 16.3733 16.5652 16.1242 16.5652C15.8751 16.5652 15.6362 16.4662 15.4601 16.2901L10.5 11.3284L5.53825 16.2885C5.36213 16.4647 5.12326 16.5636 4.87418 16.5636C4.62511 16.5636 4.38624 16.4647 4.21012 16.2885C4.034 16.1124 3.93506 15.8736 3.93506 15.6245C3.93506 15.3754 4.034 15.1365 4.21012 14.9604L9.17184 10.0003L4.21168 5.03854C4.03556 4.86242 3.93662 4.62355 3.93662 4.37448C3.93662 4.12541 4.03556 3.88654 4.21168 3.71042C4.3878 3.53429 4.62668 3.43535 4.87575 3.43535C5.12482 3.43535 5.36369 3.53429 5.53981 3.71042L10.5 8.67213L15.4617 3.70963C15.6378 3.53351 15.8767 3.43457 16.1257 3.43457C16.3748 3.43457 16.6137 3.53351 16.7898 3.70963C16.9659 3.88575 17.0649 4.12462 17.0649 4.3737C17.0649 4.62277 16.9659 4.86164 16.7898 5.03776L11.8281 10.0003L16.7882 14.962Z" fill="white"/>
</svg>
