<svg width="12" height="12" viewBox="0 0 12 12" fill="none" xmlns="http://www.w3.org/2000/svg">
<path d="M10.0153 4.2347C9.98045 4.19983 9.93909 4.17217 9.89357 4.1533C9.84804 4.13443 9.79925 4.12472 9.74996 4.12472C9.70068 4.12472 9.65189 4.13443 9.60636 4.1533C9.56084 4.17217 9.51948 4.19983 9.48465 4.2347L5.99996 7.71985L2.51528 4.2347C2.44491 4.16433 2.34948 4.1248 2.24996 4.1248C2.15045 4.1248 2.05502 4.16433 1.98465 4.2347C1.91429 4.30506 1.87476 4.4005 1.87476 4.50001C1.87476 4.59952 1.91429 4.69496 1.98465 4.76532L5.73465 8.51532C5.76948 8.55019 5.81084 8.57785 5.85636 8.59672C5.90189 8.61559 5.95068 8.62531 5.99996 8.62531C6.04925 8.62531 6.09804 8.61559 6.14357 8.59672C6.18909 8.57785 6.23045 8.55019 6.26528 8.51532L10.0153 4.76532C10.0501 4.7305 10.0778 4.68914 10.0967 4.64361C10.1155 4.59809 10.1253 4.54929 10.1253 4.50001C10.1253 4.45073 10.1155 4.40193 10.0967 4.35641C10.0778 4.31088 10.0501 4.26952 10.0153 4.2347Z" fill="#226BEC"/>
</svg>
