<svg width="12" height="12" viewBox="0 0 12 12" fill="none" xmlns="http://www.w3.org/2000/svg">
<path d="M10.0153 4.2347C9.98048 4.19983 9.93912 4.17217 9.8936 4.1533C9.84807 4.13443 9.79928 4.12472 9.75 4.12472C9.70071 4.12472 9.65192 4.13443 9.60639 4.1533C9.56087 4.17217 9.51951 4.19983 9.48468 4.2347L5.99999 7.71985L2.51531 4.2347C2.44494 4.16433 2.34951 4.1248 2.24999 4.1248C2.15048 4.1248 2.05505 4.16433 1.98468 4.2347C1.91432 4.30506 1.87479 4.4005 1.87479 4.50001C1.87479 4.59952 1.91432 4.69496 1.98468 4.76532L5.73468 8.51532C5.76951 8.55019 5.81087 8.57785 5.85639 8.59672C5.90192 8.61559 5.95071 8.62531 5.99999 8.62531C6.04928 8.62531 6.09807 8.61559 6.1436 8.59672C6.18912 8.57785 6.23048 8.55019 6.26531 8.51532L10.0153 4.76532C10.0502 4.7305 10.0778 4.68914 10.0967 4.64361C10.1156 4.59809 10.1253 4.54929 10.1253 4.50001C10.1253 4.45073 10.1156 4.40193 10.0967 4.35641C10.0778 4.31088 10.0502 4.26953 10.0153 4.2347Z" fill="#E5E7EB"/>
</svg>
