<svg width="40" height="40" viewBox="0 0 40 40" fill="none" xmlns="http://www.w3.org/2000/svg">
<rect width="40" height="40" rx="8" fill="#226BEC"/>
<path d="M22.25 29C22.25 29.1989 22.171 29.3897 22.0303 29.5303C21.8897 29.671 21.6989 29.75 21.5 29.75H18.5C18.3011 29.75 18.1103 29.671 17.9696 29.5303C17.829 29.3897 17.75 29.1989 17.75 29C17.75 28.8011 17.829 28.6103 17.9696 28.4697C18.1103 28.329 18.3011 28.25 18.5 28.25H21.5C21.6989 28.25 21.8897 28.329 22.0303 28.4697C22.171 28.6103 22.25 28.8011 22.25 29ZM20 18.5C20.2225 18.5 20.44 18.434 20.625 18.3104C20.81 18.1868 20.9542 18.0111 21.0393 17.8055C21.1245 17.6 21.1468 17.3738 21.1034 17.1555C21.06 16.9373 20.9528 16.7368 20.7955 16.5795C20.6381 16.4222 20.4377 16.315 20.2195 16.2716C20.0012 16.2282 19.775 16.2505 19.5695 16.3356C19.3639 16.4208 19.1882 16.565 19.0646 16.75C18.941 16.935 18.875 17.1525 18.875 17.375C18.875 17.6734 18.9935 17.9595 19.2045 18.1705C19.4155 18.3815 19.7016 18.5 20 18.5ZM28.9643 22.6091L27.8056 27.8244C27.7506 28.072 27.6337 28.3017 27.4659 28.4919C27.298 28.6821 27.0846 28.8266 26.8457 28.912C26.6068 28.9973 26.3502 29.0206 26.0998 28.9798C25.8494 28.9389 25.6135 28.8353 25.414 28.6784L22.8603 26.75H17.1415L14.5859 28.6784C14.3865 28.8353 14.1506 28.9389 13.9002 28.9798C13.6498 29.0206 13.3932 28.9973 13.1542 28.912C12.9153 28.8266 12.702 28.6821 12.5341 28.4919C12.3662 28.3017 12.2493 28.072 12.1943 27.8244L11.0356 22.6091C10.9864 22.3853 10.9889 22.1532 11.0429 21.9305C11.0968 21.7078 11.2008 21.5003 11.3468 21.3238L14.0243 18.1119C14.1142 16.9315 14.3852 15.772 14.8278 14.6741C16.0372 11.6422 18.2028 9.74001 19.0812 9.06313C19.3442 8.8594 19.6673 8.74884 20 8.74884C20.3326 8.74884 20.6558 8.8594 20.9187 9.06313C21.7944 9.74001 23.9628 11.6422 25.1722 14.6741C25.6148 15.772 25.8857 16.9315 25.9756 18.1119L28.6531 21.3238C28.7992 21.5003 28.9032 21.7078 28.9571 21.9305C29.011 22.1532 29.0135 22.3853 28.9643 22.6091ZM17.3215 25.25H22.6784C24.6584 21.7306 25.0287 18.3613 23.779 15.23C22.6765 12.4663 20.6084 10.7188 20 10.25C19.3897 10.7188 17.3215 12.4663 16.219 15.23C14.9712 18.3613 15.3415 21.7306 17.3215 25.25ZM15.9153 25.7984C14.9059 23.9641 14.2934 22.1613 14.0778 20.39L12.5 22.2838L13.6587 27.5L13.6756 27.4878L15.9153 25.7984ZM27.5 22.2838L25.9222 20.39C25.7084 22.1575 25.0972 23.9603 24.0884 25.7984L26.3244 27.4859L26.3412 27.4981L27.5 22.2838Z" fill="white"/>
</svg>
