<svg width="40" height="40" viewBox="0 0 40 40" fill="none" xmlns="http://www.w3.org/2000/svg">
<rect width="40" height="40" rx="8" fill="#226BEC"/>
<path d="M29.75 17C29.7504 16.9303 29.7409 16.8608 29.7219 16.7938L28.3766 12.0875C28.2861 11.7752 28.0971 11.5006 27.8378 11.3046C27.5784 11.1086 27.2626 11.0017 26.9375 11H13.0625C12.7374 11.0017 12.4216 11.1086 12.1622 11.3046C11.9029 11.5006 11.7139 11.7752 11.6234 12.0875L10.2791 16.7938C10.2597 16.8608 10.2499 16.9302 10.25 17V18.5C10.25 19.0822 10.3855 19.6563 10.6459 20.1771C10.9063 20.6978 11.2843 21.1507 11.75 21.5V27.5C11.75 27.8978 11.908 28.2794 12.1893 28.5607C12.4706 28.842 12.8522 29 13.25 29H26.75C27.1478 29 27.5294 28.842 27.8107 28.5607C28.092 28.2794 28.25 27.8978 28.25 27.5V21.5C28.7157 21.1507 29.0937 20.6978 29.3541 20.1771C29.6145 19.6563 29.75 19.0822 29.75 18.5V17ZM13.0625 12.5H26.9375L28.0081 16.25H11.9947L13.0625 12.5ZM17.75 17.75H22.25V18.5C22.25 19.0967 22.0129 19.669 21.591 20.091C21.169 20.5129 20.5967 20.75 20 20.75C19.4033 20.75 18.831 20.5129 18.409 20.091C17.9871 19.669 17.75 19.0967 17.75 18.5V17.75ZM16.25 17.75V18.5C16.25 19.0967 16.0129 19.669 15.591 20.091C15.169 20.5129 14.5967 20.75 14 20.75C13.4033 20.75 12.831 20.5129 12.409 20.091C11.9871 19.669 11.75 19.0967 11.75 18.5V17.75H16.25ZM26.75 27.5H13.25V22.175C13.4969 22.2248 13.7481 22.2499 14 22.25C14.5822 22.25 15.1563 22.1145 15.6771 21.8541C16.1978 21.5937 16.6507 21.2157 17 20.75C17.3493 21.2157 17.8022 21.5937 18.3229 21.8541C18.8437 22.1145 19.4178 22.25 20 22.25C20.5822 22.25 21.1563 22.1145 21.6771 21.8541C22.1978 21.5937 22.6507 21.2157 23 20.75C23.3493 21.2157 23.8022 21.5937 24.3229 21.8541C24.8437 22.1145 25.4178 22.25 26 22.25C26.2519 22.2499 26.5031 22.2248 26.75 22.175V27.5ZM26 20.75C25.4033 20.75 24.831 20.5129 24.409 20.091C23.9871 19.669 23.75 19.0967 23.75 18.5V17.75H28.25V18.5C28.25 19.0967 28.0129 19.669 27.591 20.091C27.169 20.5129 26.5967 20.75 26 20.75Z" fill="white"/>
</svg>
