<svg width="12" height="12" viewBox="0 0 12 12" fill="none" xmlns="http://www.w3.org/2000/svg">
<path d="M10.1479 4.10203C10.0957 4.04959 10.0336 4.00798 9.96522 3.97959C9.89685 3.9512 9.82354 3.93658 9.74951 3.93658C9.67548 3.93658 9.60217 3.9512 9.5338 3.97959C9.46543 4.00798 9.40333 4.04959 9.35107 4.10203L5.99998 7.45312L2.64795 4.10203C2.54228 3.99636 2.39895 3.93699 2.24951 3.93699C2.10007 3.93699 1.95675 3.99636 1.85107 4.10203C1.7454 4.2077 1.68604 4.35102 1.68604 4.50047C1.68604 4.64991 1.7454 4.79323 1.85107 4.8989L5.60107 8.6489C5.65333 8.70134 5.71543 8.74295 5.7838 8.77134C5.85217 8.79973 5.92548 8.81435 5.99951 8.81435C6.07354 8.81435 6.14685 8.79973 6.21522 8.77134C6.28359 8.74295 6.34569 8.70134 6.39795 8.6489L10.1479 4.8989C10.2004 4.84664 10.242 4.78455 10.2704 4.71618C10.2988 4.6478 10.3134 4.5745 10.3134 4.50047C10.3134 4.42643 10.2988 4.35313 10.2704 4.28475C10.242 4.21638 10.2004 4.15429 10.1479 4.10203Z" fill="#374151"/>
</svg>
