<svg width="12" height="12" viewBox="0 0 12 12" fill="none" xmlns="http://www.w3.org/2000/svg">
<path d="M9.56394 3V7.875C9.56394 8.02418 9.50468 8.16726 9.39919 8.27275C9.2937 8.37824 9.15063 8.4375 9.00144 8.4375C8.85226 8.4375 8.70919 8.37824 8.6037 8.27275C8.49821 8.16726 8.43894 8.02418 8.43894 7.875V4.35938L3.39941 9.39797C3.29374 9.50364 3.15042 9.56301 3.00098 9.56301C2.85153 9.56301 2.70821 9.50364 2.60254 9.39797C2.49687 9.2923 2.4375 9.14897 2.4375 8.99953C2.4375 8.85009 2.49687 8.70677 2.60254 8.60109L7.64207 3.5625H4.12644C3.97726 3.5625 3.83419 3.50324 3.7287 3.39775C3.62321 3.29226 3.56394 3.14918 3.56394 3C3.56394 2.85082 3.62321 2.70774 3.7287 2.60225C3.83419 2.49676 3.97726 2.4375 4.12644 2.4375H9.00144C9.15063 2.4375 9.2937 2.49676 9.39919 2.60225C9.50468 2.70774 9.56394 2.85082 9.56394 3Z" fill="#111827"/>
</svg>
