<svg width="137" height="26" viewBox="0 0 137 26" fill="none" xmlns="http://www.w3.org/2000/svg">
<path d="M24.8979 1.48312C25.1883 0.767188 24.6511 0 23.8785 0H2.97143C1.33035 0 0 1.33035 0 2.97143V21.7028C0 23.4058 1.68051 24.597 3.2371 23.906C13.2761 19.4496 20.923 11.2799 24.8979 1.48312Z" fill="#04b474"/>
<path d="M10.5677 26C10.2057 26 10.0541 25.5298 10.3434 25.3121C17.8427 19.6711 23.216 11.6365 25.5989 2.61697C25.6556 2.40225 26 2.44276 26 2.66484V23.0286C26 24.6696 24.6696 26 23.0286 26H10.5677Z" fill="#04b474"/>
<text x="37" y="18" font-family="Arial, sans-serif" font-size="16" font-weight="600" fill="#111827">gushpro</text>
</svg>