<svg width="106" height="20" viewBox="0 0 106 20" fill="none" xmlns="http://www.w3.org/2000/svg">
<path d="M19.1522 1.14086C19.3756 0.590145 18.9624 0 18.3681 0H2.28571C1.02335 0 0 1.02335 0 2.28571V16.6944C0 18.0045 1.2927 18.9207 2.49007 18.3892C10.2124 14.9612 16.0946 8.67687 19.1522 1.14086Z" fill="#04b474"/>
<path d="M8.12902 20C7.85056 20 7.73394 19.6383 7.95648 19.4709C13.7252 15.1316 17.8584 8.95117 19.6914 2.01305C19.7351 1.84788 20 1.87904 20 2.04988V17.7143C20 18.9767 18.9767 20 17.7143 20H8.12902Z" fill="#04b474"/>
<path d="M98.4884 11.2509L97.3134 9.95638L102.551 4.30051H104.861L98.4884 11.2509ZM96.6562 14.258V1.49997H98.5482V14.258H96.6562ZM102.969 14.258L99.3049 8.8013L100.54 7.48691L105.24 14.258H102.969Z" fill="#111827"/>
<path d="M91.616 8.90104C91.616 7.82563 91.8218 6.94937 92.2334 6.27226C92.6449 5.59515 93.176 5.09063 93.8266 4.75872C94.4771 4.4268 95.1609 4.26084 95.8778 4.26084V6.05319C95.2804 6.05319 94.7095 6.14613 94.1651 6.332C93.6341 6.5046 93.1959 6.79669 92.8507 7.20826C92.5188 7.60656 92.3529 8.15091 92.3529 8.84129L91.616 8.90104ZM90.4609 14.2582V4.30067H92.3529V14.2582H90.4609Z" fill="#111827"/>
<path d="M84.1561 14.4969C83.1603 14.4969 82.2841 14.2779 81.5273 13.8397C80.7705 13.3883 80.1731 12.7709 79.7349 11.9876C79.3101 11.2043 79.0977 10.3015 79.0977 9.27918C79.0977 8.25688 79.3101 7.35407 79.7349 6.57074C80.1598 5.78742 80.7506 5.17669 81.5074 4.73856C82.2641 4.28715 83.1338 4.06145 84.1162 4.06145C85.0987 4.06145 85.9683 4.28715 86.7251 4.73856C87.4819 5.17669 88.0727 5.78742 88.4975 6.57074C88.9224 7.35407 89.1348 8.25688 89.1348 9.27918C89.1348 10.3015 88.9224 11.2043 88.4975 11.9876C88.0727 12.7709 87.4819 13.3883 86.7251 13.8397C85.9816 14.2779 85.1253 14.4969 84.1561 14.4969ZM84.1561 12.7643C84.7535 12.7643 85.2846 12.6183 85.7493 12.3262C86.214 12.0208 86.5724 11.6092 86.8247 11.0914C87.0902 10.5737 87.223 9.96957 87.223 9.27918C87.223 8.5888 87.0902 7.98471 86.8247 7.46692C86.5724 6.94913 86.2073 6.54419 85.7294 6.2521C85.2514 5.94674 84.7137 5.79406 84.1162 5.79406C83.5055 5.79406 82.9678 5.94674 82.5031 6.2521C82.0384 6.54419 81.6733 6.94913 81.4078 7.46692C81.1423 7.98471 81.0095 8.5888 81.0095 9.27918C81.0095 9.96957 81.1423 10.5737 81.4078 11.0914C81.6733 11.6092 82.0451 12.0208 82.523 12.3262C83.001 12.6183 83.5453 12.7643 84.1561 12.7643Z" fill="#111827"/>
<path d="M73.8867 14.2578L77.2523 4.30029H79.1443L75.7587 14.2578H73.8867ZM67.1753 14.2578L70.4812 4.30029H72.1939L68.9279 14.2578H67.1753ZM67.0359 14.2578L63.6504 4.30029H65.5622L68.8482 14.2578H67.0359ZM73.8867 14.2578L70.6206 4.30029H72.3532L75.6392 14.2578H73.8867Z" fill="#111827"/>
<path d="M54.543 14.2579V1.50039H56.415V14.2579H54.543ZM61.4336 14.2579V9.15971H63.3056V14.2579H61.4336ZM61.4336 9.15971C61.4336 8.25689 61.3273 7.57315 61.1149 7.10846C60.9025 6.6305 60.6104 6.29859 60.2387 6.11271C59.8802 5.92684 59.4686 5.82727 59.0039 5.81399C58.1808 5.81399 57.5435 6.09944 57.0921 6.67033C56.6407 7.24123 56.415 8.04447 56.415 9.08005H55.6184C55.6184 8.03119 55.7711 7.13502 56.0764 6.39152C56.3951 5.63475 56.8398 5.05722 57.4107 4.65892C57.9949 4.26062 58.6853 4.06147 59.4819 4.06147C60.2652 4.06147 60.9423 4.22079 61.5132 4.53943C62.0841 4.85807 62.5289 5.35594 62.8475 6.03305C63.1662 6.69689 63.3188 7.57315 63.3056 8.66183V9.15971H61.4336Z" fill="#111827"/>
<path d="M49.558 14.4969C48.8543 14.4969 48.2236 14.3907 47.666 14.1783C47.1217 13.9658 46.657 13.6804 46.272 13.3219C45.9002 12.9635 45.6214 12.5585 45.4355 12.1071L47.0686 11.3902C47.281 11.8018 47.5996 12.1403 48.0245 12.4058C48.4494 12.6714 48.9207 12.8041 49.4385 12.8041C50.0094 12.8041 50.4807 12.6979 50.8524 12.4855C51.2242 12.2731 51.41 11.9743 51.41 11.5893C51.41 11.2176 51.2706 10.9255 50.9918 10.7131C50.713 10.5006 50.3081 10.328 49.777 10.1953L48.841 9.95629C47.9116 9.70404 47.1881 9.32565 46.6703 8.82114C46.1658 8.31662 45.9135 7.74573 45.9135 7.10845C45.9135 6.13925 46.2255 5.38912 46.8495 4.85805C47.4735 4.32698 48.3962 4.06145 49.6177 4.06145C50.2151 4.06145 50.7595 4.14775 51.2507 4.32035C51.7552 4.49294 52.1801 4.73856 52.5253 5.0572C52.8838 5.37584 53.136 5.75423 53.2821 6.19236L51.6889 6.9093C51.5295 6.511 51.2574 6.21891 50.8723 6.03304C50.4873 5.83389 50.0359 5.73431 49.5181 5.73431C48.9871 5.73431 48.5688 5.8538 48.2635 6.09278C47.9581 6.31849 47.8054 6.63713 47.8054 7.0487C47.8054 7.27441 47.9316 7.49347 48.1838 7.7059C48.4494 7.90505 48.8344 8.07101 49.3389 8.20377L50.4143 8.46267C51.0649 8.62199 51.6026 8.86761 52.0274 9.19952C52.4523 9.51816 52.7709 9.88327 52.9833 10.2948C53.1958 10.6931 53.302 11.1114 53.302 11.5495C53.302 12.1469 53.136 12.6714 52.8041 13.1228C52.4855 13.5609 52.0407 13.8995 51.4698 14.1384C50.9122 14.3774 50.2749 14.4969 49.558 14.4969Z" fill="#111827"/>
<path d="M42.348 14.2578L42.2285 12.4256V4.30029H44.1005V14.2578H42.348ZM35.3379 9.39853V4.30029H37.2298V9.39853H35.3379ZM37.2298 9.39853C37.2298 10.2881 37.3294 10.9718 37.5285 11.4498C37.741 11.9277 38.0331 12.2597 38.4048 12.4455C38.7765 12.6314 39.1948 12.731 39.6594 12.7443C40.4693 12.7443 41.1 12.4588 41.5514 11.8879C42.0028 11.317 42.2285 10.5138 42.2285 9.47819H43.045C43.045 10.5271 42.8857 11.4299 42.567 12.1866C42.2617 12.9301 41.8235 13.501 41.2526 13.8993C40.6818 14.2976 39.9847 14.4968 39.1616 14.4968C38.3915 14.4968 37.7144 14.3375 37.1302 14.0188C36.5593 13.7002 36.1146 13.2023 35.7959 12.5252C35.4906 11.8481 35.3379 10.9718 35.3379 9.89641V9.39853H37.2298Z" fill="#111827"/>
<path d="M28.68 18.4998C28.0162 18.4998 27.4121 18.4334 26.8678 18.3007C26.3234 18.1812 25.8654 18.0418 25.4936 17.8825C25.1219 17.7231 24.8431 17.5837 24.6572 17.4643L25.3741 15.9308C25.5467 16.037 25.7924 16.1565 26.111 16.2893C26.4296 16.4353 26.8014 16.5548 27.2262 16.6477C27.6511 16.7539 28.1224 16.8071 28.6402 16.8071C29.2509 16.8071 29.7953 16.6809 30.2732 16.4287C30.7512 16.1897 31.1229 15.8113 31.3885 15.2935C31.6673 14.7757 31.8067 14.1119 31.8067 13.302V4.30043H33.6986V13.2622C33.6986 14.404 33.4795 15.3599 33.0414 16.1299C32.6166 16.9133 32.0257 17.5041 31.269 17.9024C30.5255 18.3007 29.6625 18.4998 28.68 18.4998ZM28.5008 14.1185C27.598 14.1185 26.808 13.9127 26.1309 13.5012C25.4671 13.0763 24.9426 12.4921 24.5576 11.7486C24.1859 10.9919 24 10.1223 24 9.13978C24 8.11747 24.1859 7.22794 24.5576 6.47117C24.9426 5.7144 25.4671 5.12359 26.1309 4.69873C26.808 4.27388 27.598 4.06145 28.5008 4.06145C29.3239 4.06145 30.0409 4.27388 30.6516 4.69873C31.2756 5.12359 31.7536 5.72104 32.0855 6.49108C32.4307 7.24785 32.6033 8.13739 32.6033 9.15969C32.6033 10.1422 32.4307 11.0118 32.0855 11.7686C31.7536 12.5121 31.2756 13.0896 30.6516 13.5012C30.0409 13.9127 29.3239 14.1185 28.5008 14.1185ZM28.9788 12.5253C29.5364 12.5253 30.021 12.3793 30.4325 12.0872C30.8441 11.7818 31.1694 11.3769 31.4084 10.8724C31.6474 10.3546 31.7669 9.76378 31.7669 9.09995C31.7669 8.43611 31.6474 7.85194 31.4084 7.34743C31.1694 6.84291 30.8375 6.45125 30.4126 6.17244C30.0011 5.88035 29.5165 5.73431 28.9588 5.73431C28.3747 5.73431 27.8569 5.88035 27.4055 6.17244C26.9673 6.45125 26.6221 6.84291 26.3699 7.34743C26.1176 7.85194 25.9915 8.43611 25.9915 9.09995C25.9915 9.76378 26.1176 10.3546 26.3699 10.8724C26.6354 11.3769 26.9873 11.7818 27.4254 12.0872C27.8768 12.3793 28.3946 12.5253 28.9788 12.5253Z" fill="#111827"/>
</svg>
