<svg width="48" height="49" viewBox="0 0 48 49" fill="none" xmlns="http://www.w3.org/2000/svg">
<path d="M32.5613 18.9388C32.7007 19.0781 32.8114 19.2435 32.8869 19.4256C32.9623 19.6077 33.0012 19.8029 33.0012 20C33.0012 20.1971 32.9623 20.3923 32.8869 20.5744C32.8114 20.7565 32.7007 20.9219 32.5613 21.0613L22.0613 31.5613C21.922 31.7007 21.7565 31.8114 21.5744 31.8868C21.3923 31.9623 21.1971 32.0012 21 32.0012C20.8029 32.0012 20.6077 31.9623 20.4256 31.8868C20.2435 31.8114 20.0781 31.7007 19.9388 31.5613L15.4388 27.0613C15.1573 26.7798 14.9992 26.398 14.9992 26C14.9992 25.602 15.1573 25.2202 15.4388 24.9388C15.7202 24.6573 16.102 24.4992 16.5 24.4992C16.8981 24.4992 17.2798 24.6573 17.5613 24.9388L21 28.3794L30.4388 18.9388C30.5781 18.7993 30.7435 18.6886 30.9256 18.6132C31.1077 18.5377 31.3029 18.4988 31.5 18.4988C31.6971 18.4988 31.8923 18.5377 32.0744 18.6132C32.2565 18.6886 32.422 18.7993 32.5613 18.9388ZM43.5 24.5C43.5 28.3567 42.3564 32.1269 40.2137 35.3336C38.071 38.5404 35.0255 41.0397 31.4623 42.5157C27.8992 43.9916 23.9784 44.3777 20.1957 43.6253C16.4131 42.8729 12.9386 41.0157 10.2114 38.2886C7.4843 35.5615 5.62711 32.0869 4.8747 28.3043C4.12228 24.5216 4.50845 20.6008 5.98436 17.0377C7.46027 13.4745 9.95963 10.429 13.1664 8.28634C16.3731 6.14366 20.1433 5 24 5C29.1701 5.00546 34.1268 7.06167 37.7826 10.7174C41.4383 14.3732 43.4946 19.33 43.5 24.5ZM40.5 24.5C40.5 21.2366 39.5323 18.0465 37.7193 15.3331C35.9062 12.6197 33.3293 10.5048 30.3143 9.25599C27.2993 8.00714 23.9817 7.68039 20.781 8.31704C17.5803 8.9537 14.6403 10.5252 12.3327 12.8327C10.0252 15.1403 8.45371 18.0803 7.81705 21.281C7.1804 24.4817 7.50715 27.7993 8.756 30.8143C10.0048 33.8293 12.1197 36.4062 14.8331 38.2193C17.5465 40.0323 20.7366 41 24 41C28.3746 40.995 32.5685 39.2551 35.6618 36.1618C38.7551 33.0685 40.495 28.8746 40.5 24.5Z" fill="#04b474"/>
</svg>
