<svg width="32" height="33" viewBox="0 0 32 33" fill="none" xmlns="http://www.w3.org/2000/svg">
<path d="M29 12.6279C29.0005 12.5349 28.9879 12.4423 28.9625 12.3529L27.1688 6.0779C27.0482 5.66154 26.7962 5.29535 26.4504 5.03402C26.1045 4.77268 25.6835 4.63022 25.25 4.6279H6.75C6.31655 4.63022 5.89547 4.77268 5.54965 5.03402C5.20382 5.29535 4.95182 5.66154 4.83125 6.0779L3.03875 12.3529C3.01293 12.4423 2.99988 12.5349 3 12.6279V14.6279C3 15.4041 3.18073 16.1697 3.52786 16.864C3.875 17.5582 4.37902 18.1622 5 18.6279V26.6279C5 27.1583 5.21071 27.667 5.58579 28.0421C5.96086 28.4172 6.46957 28.6279 7 28.6279H25C25.5304 28.6279 26.0391 28.4172 26.4142 28.0421C26.7893 27.667 27 27.1583 27 26.6279V18.6279C27.621 18.1622 28.125 17.5582 28.4721 16.864C28.8193 16.1697 29 15.4041 29 14.6279V12.6279ZM6.75 6.6279H25.25L26.6775 11.6279H5.32625L6.75 6.6279ZM13 13.6279H19V14.6279C19 15.4235 18.6839 16.1866 18.1213 16.7492C17.5587 17.3118 16.7957 17.6279 16 17.6279C15.2044 17.6279 14.4413 17.3118 13.8787 16.7492C13.3161 16.1866 13 15.4235 13 14.6279V13.6279ZM11 13.6279V14.6279C11 15.4235 10.6839 16.1866 10.1213 16.7492C9.55871 17.3118 8.79565 17.6279 8 17.6279C7.20435 17.6279 6.44129 17.3118 5.87868 16.7492C5.31607 16.1866 5 15.4235 5 14.6279V13.6279H11ZM25 26.6279H7V19.5279C7.3292 19.5943 7.66418 19.6278 8 19.6279C8.77623 19.6279 9.54179 19.4472 10.2361 19.1C10.9303 18.7529 11.5343 18.2489 12 17.6279C12.4657 18.2489 13.0697 18.7529 13.7639 19.1C14.4582 19.4472 15.2238 19.6279 16 19.6279C16.7762 19.6279 17.5418 19.4472 18.2361 19.1C18.9303 18.7529 19.5343 18.2489 20 17.6279C20.4657 18.2489 21.0697 18.7529 21.7639 19.1C22.4582 19.4472 23.2238 19.6279 24 19.6279C24.3358 19.6278 24.6708 19.5943 25 19.5279V26.6279ZM24 17.6279C23.2044 17.6279 22.4413 17.3118 21.8787 16.7492C21.3161 16.1866 21 15.4235 21 14.6279V13.6279H27V14.6279C27 15.4235 26.6839 16.1866 26.1213 16.7492C25.5587 17.3118 24.7956 17.6279 24 17.6279Z" fill="#04b474"/>
</svg>
