<svg width="24" height="25" viewBox="0 0 24 25" fill="none" xmlns="http://www.w3.org/2000/svg">
<path d="M21.6187 5.27139C21.5033 5.00468 21.312 4.77779 21.0686 4.61894C20.8253 4.46009 20.5406 4.37629 20.25 4.37795H3.74997C3.45966 4.37853 3.17575 4.46333 2.93269 4.62209C2.68962 4.78084 2.49785 5.00671 2.38063 5.27231C2.26341 5.53791 2.22579 5.83182 2.27232 6.11838C2.31886 6.40494 2.44755 6.67184 2.64279 6.8867L2.65029 6.89514L8.99998 13.6751V20.878C8.99991 21.1494 9.07353 21.4158 9.21297 21.6488C9.35241 21.8817 9.55246 22.0724 9.79178 22.2006C10.0311 22.3288 10.3007 22.3896 10.5719 22.3766C10.843 22.3636 11.1056 22.2772 11.3315 22.1267L14.3315 20.1261C14.5372 19.9891 14.7058 19.8034 14.8224 19.5856C14.939 19.3677 15 19.1244 15 18.8773V13.6751L21.3506 6.89514L21.3581 6.8867C21.5554 6.67282 21.6853 6.40557 21.7317 6.1183C21.778 5.83103 21.7387 5.53647 21.6187 5.27139ZM13.9068 12.6542C13.6463 12.9304 13.5008 13.2955 13.5 13.6751V18.8773L10.5 20.878V13.6751C10.5008 13.2941 10.3559 12.9272 10.095 12.6495L3.74997 5.87795H20.25L13.9068 12.6542Z" fill="#0D0D0D"/>
</svg>
