<svg width="24" height="25" viewBox="0 0 24 25" fill="none" xmlns="http://www.w3.org/2000/svg">
<path d="M9.72843 18.0598C9.69186 18.2052 8.7778 21.628 3.74999 21.628C3.55108 21.628 3.36031 21.549 3.21966 21.4083C3.07901 21.2677 2.99999 21.0769 2.99999 20.878C2.99999 15.8502 6.4228 14.9361 6.56812 14.8995C6.76118 14.8513 6.96551 14.8817 7.13614 14.9841C7.30677 15.0866 7.42972 15.2526 7.47796 15.4456C7.5262 15.6387 7.49576 15.843 7.39335 16.0137C7.29093 16.1843 7.12493 16.3072 6.93187 16.3555C6.84749 16.3789 4.82999 16.9686 4.53562 20.0923C7.65937 19.798 8.24999 17.7842 8.27437 17.6905C8.32409 17.4977 8.44838 17.3325 8.61989 17.2313C8.7914 17.1301 8.99608 17.1012 9.1889 17.1509C9.38172 17.2007 9.54689 17.325 9.64807 17.4965C9.74925 17.668 9.77816 17.8727 9.72843 18.0655V18.0598ZM18.4472 11.7411L18 12.1883V17.6567C18.0011 17.8545 17.9629 18.0504 17.8876 18.2333C17.8122 18.4161 17.7013 18.5822 17.5612 18.7217L14.3437 21.9373C14.205 22.0771 14.0399 22.188 13.8581 22.2636C13.6763 22.3392 13.4813 22.3781 13.2844 22.378C13.1218 22.3779 12.9604 22.3517 12.8062 22.3002C12.5416 22.2126 12.3067 22.0528 12.1281 21.8388C11.9495 21.6247 11.8343 21.365 11.7956 21.0889L11.2922 17.4805L7.14749 13.3358L3.54093 12.8323C3.2645 12.7936 3.00437 12.6784 2.78981 12.4999C2.57524 12.3214 2.41476 12.0865 2.3264 11.8217C2.23804 11.5569 2.22532 11.2727 2.28966 11.0011C2.35401 10.7295 2.49286 10.4812 2.69062 10.2842L5.90624 7.06672C6.04581 6.92665 6.21185 6.81572 6.39468 6.7404C6.57751 6.66507 6.7735 6.62686 6.97124 6.62797H12.4397L12.8869 6.18079C15.3881 3.68047 18.4022 3.57266 19.5816 3.64297C19.9472 3.6652 20.2922 3.82049 20.5512 4.07955C20.8103 4.33861 20.9656 4.68353 20.9878 5.04922C21.0562 6.22579 20.9484 9.23985 18.4481 11.7411H18.4472ZM3.74999 11.3473L7.2328 11.833L10.9397 8.12797H6.97124L3.74999 11.3473ZM8.56124 12.628L12 16.0667L17.3859 10.6808C18.1118 9.95985 18.6749 9.09189 19.0374 8.13525C19.4 7.17861 19.5535 6.15545 19.4878 5.13454C18.4674 5.07126 17.4453 5.22644 16.4897 5.58971C15.534 5.95298 14.6669 6.51598 13.9462 7.2411L8.56124 12.628ZM16.5 13.6883L12.7941 17.3942L13.2816 20.878L16.5 17.6567V13.6883Z" fill="#0D0D0D"/>
</svg>
