<svg width="32" height="33" viewBox="0 0 32 33" fill="none" xmlns="http://www.w3.org/2000/svg">
<path d="M31 14.6279H27.51L21.5725 6.45168C21.3926 6.20464 21.1584 6.00213 20.888 5.85968C20.6176 5.71723 20.3182 5.63865 20.0127 5.62996C19.7072 5.62127 19.4038 5.6827 19.1258 5.80955C18.8477 5.93639 18.6024 6.12527 18.4088 6.36168L16.8025 8.22418L16.7775 8.25293C16.6844 8.36985 16.5662 8.46428 16.4316 8.52918C16.297 8.59408 16.1494 8.62778 16 8.62778C15.8506 8.62778 15.703 8.59408 15.5684 8.52918C15.4338 8.46428 15.3156 8.36985 15.2225 8.25293L15.1975 8.22418L13.5913 6.36168C13.3976 6.12527 13.1523 5.93639 12.8742 5.80955C12.5962 5.6827 12.2928 5.62127 11.9873 5.62996C11.6818 5.63865 11.3824 5.71723 11.112 5.85968C10.8416 6.00213 10.6074 6.20464 10.4275 6.45168L4.49 14.6279H1C0.734784 14.6279 0.48043 14.7333 0.292893 14.9208C0.105357 15.1084 0 15.3627 0 15.6279C0 15.8931 0.105357 16.1475 0.292893 16.335C0.48043 16.5226 0.734784 16.6279 1 16.6279H31C31.2652 16.6279 31.5196 16.5226 31.7071 16.335C31.8946 16.1475 32 15.8931 32 15.6279C32 15.3627 31.8946 15.1084 31.7071 14.9208C31.5196 14.7333 31.2652 14.6279 31 14.6279ZM12.0425 7.62793L12.0662 7.65668L13.6725 9.51793C13.9538 9.86384 14.3087 10.1427 14.7113 10.3342C15.1139 10.5257 15.5541 10.6251 16 10.6251C16.4459 10.6251 16.8861 10.5257 17.2887 10.3342C17.6913 10.1427 18.0462 9.86384 18.3275 9.51793L19.9338 7.65668C19.9412 7.64668 19.9462 7.63793 19.955 7.62793L25.0375 14.6279H6.96125L12.0425 7.62793ZM22.5 18.6279C21.3933 18.6281 20.3254 19.0362 19.5006 19.7741C18.6757 20.512 18.1517 21.528 18.0287 22.6279H13.9712C13.848 21.529 13.3244 20.514 12.5005 19.7765C11.6766 19.039 10.61 18.6307 9.5042 18.6295C8.39843 18.6283 7.33092 19.0343 6.50539 19.77C5.67985 20.5057 5.1541 21.5196 5.02844 22.6182C4.90279 23.7168 5.18604 24.8232 5.82413 25.7263C6.46223 26.6294 7.4105 27.2659 8.48799 27.5144C9.56548 27.7629 10.6967 27.606 11.6659 27.0736C12.6351 26.5412 13.3743 25.6706 13.7425 24.6279H18.2575C18.5325 25.4058 19.016 26.093 19.6553 26.6146C20.2945 27.1361 21.0648 27.4719 21.8819 27.5853C22.6991 27.6986 23.5317 27.5851 24.2888 27.2572C25.0458 26.9293 25.6981 26.3996 26.1744 25.726C26.6507 25.0523 26.9327 24.2607 26.9895 23.4377C27.0463 22.6147 26.8757 21.7918 26.4964 21.0592C26.1172 20.3265 25.5438 19.7122 24.839 19.2835C24.1341 18.8547 23.325 18.6279 22.5 18.6279ZM9.5 25.6279C9.00555 25.6279 8.5222 25.4813 8.11107 25.2066C7.69995 24.9319 7.37952 24.5415 7.1903 24.0846C7.00108 23.6278 6.95157 23.1252 7.04804 22.6402C7.1445 22.1553 7.3826 21.7098 7.73223 21.3602C8.08186 21.0105 8.52732 20.7724 9.01227 20.676C9.49723 20.5795 9.99989 20.629 10.4567 20.8182C10.9135 21.0075 11.304 21.3279 11.5787 21.739C11.8534 22.1501 12 22.6335 12 23.1279C12 23.4562 11.9353 23.7813 11.8097 24.0846C11.6841 24.388 11.4999 24.6636 11.2678 24.8957C11.0356 25.1278 10.76 25.312 10.4567 25.4376C10.1534 25.5633 9.8283 25.6279 9.5 25.6279ZM22.5 25.6279C22.0055 25.6279 21.5222 25.4813 21.1111 25.2066C20.7 24.9319 20.3795 24.5415 20.1903 24.0846C20.0011 23.6278 19.9516 23.1252 20.048 22.6402C20.1445 22.1553 20.3826 21.7098 20.7322 21.3602C21.0819 21.0105 21.5273 20.7724 22.0123 20.676C22.4972 20.5795 22.9999 20.629 23.4567 20.8182C23.9135 21.0075 24.304 21.3279 24.5787 21.739C24.8534 22.1501 25 22.6335 25 23.1279C25 23.791 24.7366 24.4269 24.2678 24.8957C23.7989 25.3645 23.163 25.6279 22.5 25.6279Z" fill="#04b474"/>
</svg>
