<svg width="32" height="33" viewBox="0 0 32 33" fill="none" xmlns="http://www.w3.org/2000/svg">
<path d="M14.5 22.6279C14.5 22.8931 14.3946 23.1475 14.2071 23.335C14.0196 23.5226 13.7652 23.6279 13.5 23.6279H10C9.73478 23.6279 9.48043 23.5226 9.29289 23.335C9.10536 23.1475 9 22.8931 9 22.6279C9 22.3627 9.10536 22.1084 9.29289 21.9208C9.48043 21.7333 9.73478 21.6279 10 21.6279H13.5C13.7652 21.6279 14.0196 21.7333 14.2071 21.9208C14.3946 22.1084 14.5 22.3627 14.5 22.6279ZM22 21.6279H18.5C18.2348 21.6279 17.9804 21.7333 17.7929 21.9208C17.6054 22.1084 17.5 22.3627 17.5 22.6279C17.5 22.8931 17.6054 23.1475 17.7929 23.335C17.9804 23.5226 18.2348 23.6279 18.5 23.6279H22C22.2652 23.6279 22.5196 23.5226 22.7071 23.335C22.8946 23.1475 23 22.8931 23 22.6279C23 22.3627 22.8946 22.1084 22.7071 21.9208C22.5196 21.7333 22.2652 21.6279 22 21.6279ZM31 27.6279C31 27.8931 30.8946 28.1475 30.7071 28.335C30.5196 28.5226 30.2652 28.6279 30 28.6279H2C1.73478 28.6279 1.48043 28.5226 1.29289 28.335C1.10536 28.1475 1 27.8931 1 27.6279C1 27.3627 1.10536 27.1084 1.29289 26.9208C1.48043 26.7333 1.73478 26.6279 2 26.6279H4V11.6279C4 11.4422 4.05172 11.2602 4.14935 11.1022C4.24698 10.9442 4.38668 10.8166 4.55279 10.7335C4.71889 10.6504 4.90484 10.6153 5.08981 10.632C5.27477 10.6486 5.45143 10.7165 5.6 10.8279L12 15.6279V11.6279C12 11.4422 12.0517 11.2602 12.1494 11.1022C12.247 10.9442 12.3867 10.8166 12.5528 10.7335C12.7189 10.6504 12.9048 10.6153 13.0898 10.632C13.2748 10.6486 13.4514 10.7165 13.6 10.8279L18.4425 14.4592L19.8875 4.34543C19.9575 3.86962 20.1957 3.43468 20.559 3.11955C20.9223 2.80442 21.3866 2.62999 21.8675 2.62793H24.1325C24.6134 2.62999 25.0777 2.80442 25.441 3.11955C25.8043 3.43468 26.0425 3.86962 26.1125 4.34543L27.9875 17.4867C27.9875 17.4867 27.9975 17.5842 27.9975 17.6279V26.6279H29.9975C30.129 26.6276 30.2593 26.6532 30.381 26.7033C30.5026 26.7534 30.6131 26.827 30.7062 26.9199C30.7993 27.0128 30.8732 27.1232 30.9236 27.2447C30.9741 27.3662 31 27.4964 31 27.6279ZM20.2675 15.8279L21.3338 16.6279H25.8475L24.1325 4.62793H21.8675L20.2675 15.8279ZM6 26.6279H26V18.6279H21C20.7836 18.6279 20.5731 18.5577 20.4 18.4279L18.6 17.0779L14 13.6279V17.6279C14 17.8136 13.9483 17.9957 13.8507 18.1537C13.753 18.3116 13.6133 18.4393 13.4472 18.5224C13.2811 18.6054 13.0952 18.6406 12.9102 18.6239C12.7252 18.6072 12.5486 18.5394 12.4 18.4279L6 13.6279V26.6279Z" fill="#04b474"/>
</svg>
