<svg width="32" height="33" viewBox="0 0 32 33" fill="none" xmlns="http://www.w3.org/2000/svg">
<path d="M20.9995 14.6279H26.9995C27.5299 14.6279 28.0387 14.4172 28.4137 14.0421C28.7888 13.6671 28.9995 13.1584 28.9995 12.6279V6.62793C28.9995 6.0975 28.7888 5.58879 28.4137 5.21372C28.0387 4.83864 27.5299 4.62793 26.9995 4.62793H20.9995C20.4691 4.62793 19.9604 4.83864 19.5853 5.21372C19.2102 5.58879 18.9995 6.0975 18.9995 6.62793V8.62793H17.9995C16.9386 8.62793 15.9212 9.04936 15.1711 9.7995C14.4209 10.5496 13.9995 11.5671 13.9995 12.6279V15.6279H9.99951V14.6279C9.99951 14.0975 9.7888 13.5888 9.41372 13.2137C9.03865 12.8386 8.52994 12.6279 7.99951 12.6279H3.99951C3.46908 12.6279 2.96037 12.8386 2.5853 13.2137C2.21023 13.5888 1.99951 14.0975 1.99951 14.6279V18.6279C1.99951 19.1584 2.21023 19.6671 2.5853 20.0421C2.96037 20.4172 3.46908 20.6279 3.99951 20.6279H7.99951C8.52994 20.6279 9.03865 20.4172 9.41372 20.0421C9.7888 19.6671 9.99951 19.1584 9.99951 18.6279V17.6279H13.9995V20.6279C13.9995 21.6888 14.4209 22.7062 15.1711 23.4564C15.9212 24.2065 16.9386 24.6279 17.9995 24.6279H18.9995V26.6279C18.9995 27.1584 19.2102 27.6671 19.5853 28.0421C19.9604 28.4172 20.4691 28.6279 20.9995 28.6279H26.9995C27.5299 28.6279 28.0387 28.4172 28.4137 28.0421C28.7888 27.6671 28.9995 27.1584 28.9995 26.6279V20.6279C28.9995 20.0975 28.7888 19.5888 28.4137 19.2137C28.0387 18.8386 27.5299 18.6279 26.9995 18.6279H20.9995C20.4691 18.6279 19.9604 18.8386 19.5853 19.2137C19.2102 19.5888 18.9995 20.0975 18.9995 20.6279V22.6279H17.9995C17.4691 22.6279 16.9604 22.4172 16.5853 22.0421C16.2102 21.6671 15.9995 21.1584 15.9995 20.6279V12.6279C15.9995 12.0975 16.2102 11.5888 16.5853 11.2137C16.9604 10.8386 17.4691 10.6279 17.9995 10.6279H18.9995V12.6279C18.9995 13.1584 19.2102 13.6671 19.5853 14.0421C19.9604 14.4172 20.4691 14.6279 20.9995 14.6279ZM7.99951 18.6279H3.99951V14.6279H7.99951V18.6279ZM20.9995 20.6279H26.9995V26.6279H20.9995V20.6279ZM20.9995 6.62793H26.9995V12.6279H20.9995V6.62793Z" fill="#04b474"/>
</svg>
