<svg width="32" height="33" viewBox="0 0 32 33" fill="none" xmlns="http://www.w3.org/2000/svg">
<path d="M16 3.62793C13.4288 3.62793 10.9154 4.39037 8.77759 5.81883C6.63975 7.24728 4.97351 9.27761 3.98957 11.653C3.00563 14.0285 2.74819 16.6424 3.2498 19.1641C3.75141 21.6859 4.98953 24.0022 6.80762 25.8203C8.6257 27.6384 10.9421 28.8765 13.4638 29.3781C15.9856 29.8797 18.5995 29.6223 20.9749 28.6384C23.3503 27.6544 25.3807 25.9882 26.8091 23.8503C28.2376 21.7125 29 19.1991 29 16.6279C28.9964 13.1812 27.6256 9.87675 25.1884 7.43956C22.7512 5.00238 19.4467 3.63157 16 3.62793ZM27 16.6279C27.0026 19.1998 26.0993 21.6905 24.4488 23.6629L8.96501 8.17793C10.5713 6.84165 12.5249 5.99048 14.5972 5.72403C16.6696 5.45757 18.775 5.78685 20.667 6.67334C22.5591 7.55982 24.1595 8.96684 25.281 10.7297C26.4026 12.4926 26.9988 14.5385 27 16.6279ZM5.00001 16.6279C4.99745 14.056 5.90069 11.5653 7.55126 9.59293L23.035 25.0779C21.4288 26.4142 19.4751 27.2654 17.4028 27.5318C15.3304 27.7983 13.225 27.469 11.333 26.5825C9.44096 25.696 7.84053 24.289 6.71899 22.5261C5.59745 20.7632 5.0012 18.7174 5.00001 16.6279Z" fill="#04b474"/>
</svg>
