<svg width="17" height="17" viewBox="0 0 17 17" fill="none" xmlns="http://www.w3.org/2000/svg">
<path d="M11.3538 6.77418C11.4002 6.82062 11.4371 6.87576 11.4623 6.93646C11.4874 6.99716 11.5004 7.06222 11.5004 7.12793C11.5004 7.19364 11.4874 7.2587 11.4623 7.3194C11.4371 7.3801 11.4002 7.43524 11.3538 7.48168L7.85375 10.9817C7.80731 11.0282 7.75217 11.065 7.69147 11.0902C7.63077 11.1154 7.56571 11.1283 7.5 11.1283C7.43429 11.1283 7.36923 11.1154 7.30853 11.0902C7.24783 11.065 7.19269 11.0282 7.14625 10.9817L5.64625 9.48168C5.55243 9.38786 5.49972 9.26061 5.49972 9.12793C5.49972 8.99525 5.55243 8.868 5.64625 8.77418C5.74007 8.68036 5.86732 8.62765 6 8.62765C6.13268 8.62765 6.25993 8.68036 6.35375 8.77418L7.5 9.92105L10.6462 6.77418C10.6927 6.72769 10.7478 6.69081 10.8085 6.66565C10.8692 6.64049 10.9343 6.62754 11 6.62754C11.0657 6.62754 11.1308 6.64049 11.1915 6.66565C11.2522 6.69081 11.3073 6.72769 11.3538 6.77418ZM14.5 3.62793V13.6279C14.5 13.8931 14.3946 14.1475 14.2071 14.335C14.0196 14.5226 13.7652 14.6279 13.5 14.6279H3.5C3.23478 14.6279 2.98043 14.5226 2.79289 14.335C2.60536 14.1475 2.5 13.8931 2.5 13.6279V3.62793C2.5 3.36271 2.60536 3.10836 2.79289 2.92082C2.98043 2.73329 3.23478 2.62793 3.5 2.62793H13.5C13.7652 2.62793 14.0196 2.73329 14.2071 2.92082C14.3946 3.10836 14.5 3.36271 14.5 3.62793ZM13.5 13.6279V3.62793H3.5V13.6279H13.5Z" fill="white"/>
</svg>
