<svg width="24" height="25" viewBox="0 0 24 25" fill="none" xmlns="http://www.w3.org/2000/svg">
<path d="M14.25 9.62793H9.75C9.55109 9.62793 9.36032 9.70695 9.21967 9.8476C9.07902 9.98825 9 10.179 9 10.3779V14.8779C9 15.0768 9.07902 15.2676 9.21967 15.4083C9.36032 15.5489 9.55109 15.6279 9.75 15.6279H14.25C14.4489 15.6279 14.6397 15.5489 14.7803 15.4083C14.921 15.2676 15 15.0768 15 14.8779V10.3779C15 10.179 14.921 9.98825 14.7803 9.8476C14.6397 9.70695 14.4489 9.62793 14.25 9.62793ZM13.5 14.1279H10.5V11.1279H13.5V14.1279ZM21.75 14.1279H20.25V11.1279H21.75C21.9489 11.1279 22.1397 11.0489 22.2803 10.9083C22.421 10.7676 22.5 10.5768 22.5 10.3779C22.5 10.179 22.421 9.98825 22.2803 9.8476C22.1397 9.70695 21.9489 9.62793 21.75 9.62793H20.25V5.87793C20.25 5.4801 20.092 5.09857 19.8107 4.81727C19.5294 4.53596 19.1478 4.37793 18.75 4.37793H15V2.87793C15 2.67902 14.921 2.48825 14.7803 2.3476C14.6397 2.20695 14.4489 2.12793 14.25 2.12793C14.0511 2.12793 13.8603 2.20695 13.7197 2.3476C13.579 2.48825 13.5 2.67902 13.5 2.87793V4.37793H10.5V2.87793C10.5 2.67902 10.421 2.48825 10.2803 2.3476C10.1397 2.20695 9.94891 2.12793 9.75 2.12793C9.55109 2.12793 9.36032 2.20695 9.21967 2.3476C9.07902 2.48825 9 2.67902 9 2.87793V4.37793H5.25C4.85217 4.37793 4.47064 4.53596 4.18934 4.81727C3.90804 5.09857 3.75 5.4801 3.75 5.87793V9.62793H2.25C2.05109 9.62793 1.86032 9.70695 1.71967 9.8476C1.57902 9.98825 1.5 10.179 1.5 10.3779C1.5 10.5768 1.57902 10.7676 1.71967 10.9083C1.86032 11.0489 2.05109 11.1279 2.25 11.1279H3.75V14.1279H2.25C2.05109 14.1279 1.86032 14.2069 1.71967 14.3476C1.57902 14.4883 1.5 14.679 1.5 14.8779C1.5 15.0768 1.57902 15.2676 1.71967 15.4083C1.86032 15.5489 2.05109 15.6279 2.25 15.6279H3.75V19.3779C3.75 19.7758 3.90804 20.1573 4.18934 20.4386C4.47064 20.7199 4.85217 20.8779 5.25 20.8779H9V22.3779C9 22.5768 9.07902 22.7676 9.21967 22.9083C9.36032 23.0489 9.55109 23.1279 9.75 23.1279C9.94891 23.1279 10.1397 23.0489 10.2803 22.9083C10.421 22.7676 10.5 22.5768 10.5 22.3779V20.8779H13.5V22.3779C13.5 22.5768 13.579 22.7676 13.7197 22.9083C13.8603 23.0489 14.0511 23.1279 14.25 23.1279C14.4489 23.1279 14.6397 23.0489 14.7803 22.9083C14.921 22.7676 15 22.5768 15 22.3779V20.8779H18.75C19.1478 20.8779 19.5294 20.7199 19.8107 20.4386C20.092 20.1573 20.25 19.7758 20.25 19.3779V15.6279H21.75C21.9489 15.6279 22.1397 15.5489 22.2803 15.4083C22.421 15.2676 22.5 15.0768 22.5 14.8779C22.5 14.679 22.421 14.4883 22.2803 14.3476C22.1397 14.2069 21.9489 14.1279 21.75 14.1279ZM18.75 19.3779H5.25V5.87793H18.75V14.8657C18.75 14.8657 18.75 14.8742 18.75 14.8779C18.75 14.8817 18.75 14.8864 18.75 14.8901V19.3779Z" fill="#0D0D0D"/>
</svg>
