<svg width="33" height="33" viewBox="0 0 33 33" fill="none" xmlns="http://www.w3.org/2000/svg">
<path d="M27.2075 10.9204L20.2075 3.92043C20.1146 3.8276 20.0042 3.75398 19.8829 3.70379C19.7615 3.65361 19.6314 3.62783 19.5 3.62793H7.5C6.96957 3.62793 6.46086 3.83864 6.08579 4.21372C5.71071 4.58879 5.5 5.0975 5.5 5.62793V27.6279C5.5 28.1584 5.71071 28.6671 6.08579 29.0421C6.46086 29.4172 6.96957 29.6279 7.5 29.6279H25.5C26.0304 29.6279 26.5391 29.4172 26.9142 29.0421C27.2893 28.6671 27.5 28.1584 27.5 27.6279V11.6279C27.5001 11.4966 27.4743 11.3665 27.4241 11.2451C27.3739 11.1237 27.3003 11.0134 27.2075 10.9204ZM20.5 7.04168L24.0863 10.6279H20.5V7.04168ZM25.5 27.6279H7.5V5.62793H18.5V11.6279C18.5 11.8931 18.6054 12.1475 18.7929 12.335C18.9804 12.5226 19.2348 12.6279 19.5 12.6279H25.5V27.6279ZM21.5 17.6279C21.5 17.8931 21.3946 18.1475 21.2071 18.335C21.0196 18.5226 20.7652 18.6279 20.5 18.6279H12.5C12.2348 18.6279 11.9804 18.5226 11.7929 18.335C11.6054 18.1475 11.5 17.8931 11.5 17.6279C11.5 17.3627 11.6054 17.1084 11.7929 16.9208C11.9804 16.7333 12.2348 16.6279 12.5 16.6279H20.5C20.7652 16.6279 21.0196 16.7333 21.2071 16.9208C21.3946 17.1084 21.5 17.3627 21.5 17.6279ZM21.5 21.6279C21.5 21.8931 21.3946 22.1475 21.2071 22.335C21.0196 22.5226 20.7652 22.6279 20.5 22.6279H12.5C12.2348 22.6279 11.9804 22.5226 11.7929 22.335C11.6054 22.1475 11.5 21.8931 11.5 21.6279C11.5 21.3627 11.6054 21.1084 11.7929 20.9208C11.9804 20.7333 12.2348 20.6279 12.5 20.6279H20.5C20.7652 20.6279 21.0196 20.7333 21.2071 20.9208C21.3946 21.1084 21.5 21.3627 21.5 21.6279Z" fill="#04b474"/>
</svg>
