<svg width="33" height="33" viewBox="0 0 33 33" fill="none" xmlns="http://www.w3.org/2000/svg">
<path d="M16.5005 10.628C15.3138 10.628 14.1538 10.9798 13.1671 11.6391C12.1804 12.2984 11.4113 13.2355 10.9572 14.3319C10.5031 15.4282 10.3843 16.6346 10.6158 17.7985C10.8473 18.9624 11.4187 20.0315 12.2578 20.8706C13.097 21.7097 14.1661 22.2812 15.3299 22.5127C16.4938 22.7442 17.7002 22.6254 18.7966 22.1712C19.8929 21.7171 20.83 20.9481 21.4893 19.9614C22.1486 18.9747 22.5005 17.8146 22.5005 16.628C22.4985 15.0373 21.8657 13.5123 20.7409 12.3875C19.6161 11.2627 18.0912 10.6299 16.5005 10.628ZM16.5005 20.628C15.7094 20.628 14.936 20.3934 14.2782 19.9538C13.6204 19.5143 13.1077 18.8896 12.805 18.1587C12.5022 17.4278 12.423 16.6235 12.5773 15.8476C12.7317 15.0717 13.1127 14.3589 13.6721 13.7995C14.2315 13.2401 14.9442 12.8592 15.7201 12.7048C16.4961 12.5505 17.3003 12.6297 18.0312 12.9324C18.7621 13.2352 19.3868 13.7479 19.8264 14.4057C20.2659 15.0635 20.5005 15.8368 20.5005 16.628C20.5005 17.6888 20.0791 18.7062 19.3289 19.4564C18.5788 20.2065 17.5614 20.628 16.5005 20.628ZM28.4605 8.8967L17.4605 2.87795C17.1666 2.71555 16.8363 2.63037 16.5005 2.63037C16.1647 2.63037 15.8344 2.71555 15.5405 2.87795L4.54049 8.8992C4.22635 9.07108 3.96412 9.32415 3.78118 9.63198C3.59824 9.93981 3.5013 10.2911 3.50049 10.6492V22.6042C3.5013 22.9623 3.59824 23.3136 3.78118 23.6214C3.96412 23.9293 4.22635 24.1823 4.54049 24.3542L15.5405 30.3755C15.8344 30.5378 16.1647 30.623 16.5005 30.623C16.8363 30.623 17.1666 30.5378 17.4605 30.3755L28.4605 24.3542C28.7746 24.1823 29.0369 23.9293 29.2198 23.6214C29.4027 23.3136 29.4997 22.9623 29.5005 22.6042V10.6505C29.5003 10.2917 29.4037 9.93965 29.2208 9.6311C29.0378 9.32255 28.7752 9.06889 28.4605 8.8967ZM16.5005 28.628L5.50049 22.6055V10.6505L16.5005 4.62795L27.5005 10.6492V22.6042L16.5005 28.628Z" fill="#04b474"/>
</svg>
