<svg width="18" height="19" viewBox="0 0 18 19" fill="none" xmlns="http://www.w3.org/2000/svg">
<path d="M15.8808 7.85746C15.6157 7.58043 15.3415 7.29496 15.2381 7.04395C15.1425 6.81402 15.1369 6.43293 15.1312 6.06379C15.1207 5.37754 15.1095 4.59988 14.5687 4.05918C14.028 3.51848 13.2504 3.50723 12.5641 3.49668C12.195 3.49105 11.8139 3.48543 11.584 3.3898C11.3337 3.28645 11.0475 3.01223 10.7705 2.74715C10.2853 2.28098 9.73406 1.75293 9 1.75293C8.26594 1.75293 7.71539 2.28098 7.22953 2.74715C6.9525 3.01223 6.66703 3.28645 6.41602 3.3898C6.1875 3.48543 5.805 3.49105 5.43586 3.49668C4.74961 3.50723 3.97195 3.51848 3.43125 4.05918C2.89055 4.59988 2.88281 5.37754 2.86875 6.06379C2.86312 6.43293 2.8575 6.81402 2.76187 7.04395C2.65852 7.29426 2.3843 7.58043 2.11922 7.85746C1.65305 8.34262 1.125 8.89387 1.125 9.62793C1.125 10.362 1.65305 10.9125 2.11922 11.3984C2.3843 11.6754 2.65852 11.9609 2.76187 12.2119C2.8575 12.4418 2.86312 12.8229 2.86875 13.1921C2.8793 13.8783 2.89055 14.656 3.43125 15.1967C3.97195 15.7374 4.74961 15.7486 5.43586 15.7592C5.805 15.7648 6.18609 15.7704 6.41602 15.8661C6.66633 15.9694 6.9525 16.2436 7.22953 16.5087C7.71469 16.9749 8.26594 17.5029 9 17.5029C9.73406 17.5029 10.2846 16.9749 10.7705 16.5087C11.0475 16.2436 11.333 15.9694 11.584 15.8661C11.8139 15.7704 12.195 15.7648 12.5641 15.7592C13.2504 15.7486 14.028 15.7374 14.5687 15.1967C15.1095 14.656 15.1207 13.8783 15.1312 13.1921C15.1369 12.8229 15.1425 12.4418 15.2381 12.2119C15.3415 11.9616 15.6157 11.6754 15.8808 11.3984C16.347 10.9132 16.875 10.362 16.875 9.62793C16.875 8.89387 16.347 8.34332 15.8808 7.85746ZM15.0687 10.62C14.7319 10.9716 14.3831 11.3351 14.1982 11.7816C14.021 12.2105 14.0133 12.7006 14.0062 13.1752C13.9992 13.6674 13.9915 14.1828 13.7728 14.4007C13.5541 14.6187 13.0423 14.6271 12.5473 14.6342C12.0727 14.6412 11.5826 14.6489 11.1537 14.8261C10.7072 15.0111 10.3437 15.3598 9.99211 15.6966C9.64055 16.0334 9.28125 16.3779 9 16.3779C8.71875 16.3779 8.35664 16.032 8.00789 15.6966C7.65914 15.3612 7.29281 15.0111 6.84633 14.8261C6.41742 14.6489 5.92734 14.6412 5.45273 14.6342C4.96055 14.6271 4.44516 14.6194 4.22719 14.4007C4.00922 14.1821 4.00078 13.6702 3.99375 13.1752C3.98672 12.7006 3.97898 12.2105 3.8018 11.7816C3.61687 11.3351 3.26812 10.9716 2.93133 10.62C2.59453 10.2685 2.25 9.90918 2.25 9.62793C2.25 9.34668 2.59594 8.98457 2.93133 8.63582C3.26672 8.28707 3.61687 7.92074 3.8018 7.47426C3.97898 7.04535 3.98672 6.55527 3.99375 6.08066C4.00078 5.58848 4.00852 5.07309 4.22719 4.85512C4.44586 4.63715 4.95773 4.62871 5.45273 4.62168C5.92734 4.61465 6.41742 4.60691 6.84633 4.42973C7.29281 4.2448 7.65633 3.89605 8.00789 3.55926C8.35945 3.22246 8.71875 2.87793 9 2.87793C9.28125 2.87793 9.64336 3.22387 9.99211 3.55926C10.3409 3.89465 10.7072 4.2448 11.1537 4.42973C11.5826 4.60691 12.0727 4.61465 12.5473 4.62168C13.0395 4.62871 13.5548 4.63645 13.7728 4.85512C13.9908 5.07379 13.9992 5.58566 14.0062 6.08066C14.0133 6.55527 14.021 7.04535 14.1982 7.47426C14.3831 7.92074 14.7319 8.28426 15.0687 8.63582C15.4055 8.98738 15.75 9.34668 15.75 9.62793C15.75 9.90918 15.4041 10.2713 15.0687 10.62ZM12.2105 7.54246C12.2628 7.5947 12.3043 7.65674 12.3326 7.72503C12.3609 7.79331 12.3754 7.86651 12.3754 7.94043C12.3754 8.01435 12.3609 8.08755 12.3326 8.15583C12.3043 8.22412 12.2628 8.28616 12.2105 8.3384L8.27297 12.2759C8.22073 12.3282 8.15869 12.3697 8.0904 12.398C8.02212 12.4263 7.94892 12.4409 7.875 12.4409C7.80108 12.4409 7.72788 12.4263 7.6596 12.398C7.59131 12.3697 7.52927 12.3282 7.47703 12.2759L5.78953 10.5884C5.68398 10.4829 5.62469 10.3397 5.62469 10.1904C5.62469 10.0412 5.68398 9.89801 5.78953 9.79246C5.89508 9.68691 6.03823 9.62762 6.1875 9.62762C6.33677 9.62762 6.47992 9.68691 6.58547 9.79246L7.875 11.0827L11.4145 7.54246C11.4668 7.49016 11.5288 7.44867 11.5971 7.42036C11.6654 7.39206 11.7386 7.37749 11.8125 7.37749C11.8864 7.37749 11.9596 7.39206 12.0279 7.42036C12.0962 7.44867 12.1582 7.49016 12.2105 7.54246Z" fill="#0D0D0D"/>
</svg>
