<svg width="542" height="221" viewBox="0 0 542 221" fill="none" xmlns="http://www.w3.org/2000/svg">
<g filter="url(#filter0_dd_183_27274)">
<g clip-path="url(#clip0_183_27274)">
<rect x="17.5" y="46.3477" width="403.687" height="246.28" rx="7.11471" fill="white"/>
<rect x="17.5" y="62.9691" width="403.687" height="229.183" fill="white"/>
<path d="M39.171 98.111H44.1667C45.4199 98.111 46.3483 98.4765 46.9517 99.2076C47.5551 99.9387 47.735 100.757 47.4913 101.662C47.2592 102.567 46.6732 103.217 45.7332 103.611C46.151 103.693 46.5455 103.873 46.9169 104.151C47.2998 104.418 47.6073 104.789 47.8394 105.265C48.0831 105.729 48.205 106.263 48.205 106.866C48.205 107.644 48.0483 108.317 47.735 108.886C47.4217 109.454 46.9807 109.889 46.4121 110.191C45.8435 110.493 45.182 110.644 44.4278 110.644H39.171V98.111ZM44.0796 109.025C44.8687 109.025 45.4837 108.851 45.9247 108.503C46.3657 108.143 46.5862 107.603 46.5862 106.884C46.5862 106.188 46.3715 105.631 45.9421 105.213C45.5244 104.783 44.9035 104.569 44.0796 104.569H40.7898V109.042L44.0796 109.025ZM43.8533 103.263C44.2827 103.263 44.6656 103.176 45.0022 103.002C45.3503 102.828 45.623 102.59 45.8203 102.289C46.0175 101.975 46.1162 101.621 46.1162 101.227C46.1162 100.635 45.9073 100.206 45.4896 99.9387C45.0718 99.6718 44.5264 99.5383 43.8533 99.5383H40.7376V103.263H43.8533ZM53.7363 110.853C52.8428 110.853 52.0479 110.655 51.3516 110.261C50.6553 109.855 50.1099 109.274 49.7154 108.52C49.3324 107.766 49.141 106.872 49.141 105.839C49.141 104.923 49.3324 104.105 49.7154 103.385C50.0983 102.654 50.6205 102.085 51.282 101.679C51.9434 101.273 52.6803 101.07 53.4926 101.07C54.8619 101.07 55.9295 101.488 56.6954 102.323C57.4729 103.147 57.8616 104.302 57.8616 105.787C57.8616 106.066 57.85 106.28 57.8268 106.431H50.812C50.8816 107.29 51.1717 107.992 51.6823 108.537C52.1929 109.071 52.8776 109.338 53.7363 109.338C54.3397 109.338 54.8619 109.164 55.3029 108.816C55.7554 108.468 56.0804 107.986 56.2776 107.371H57.8268C57.5135 108.497 57.0145 109.361 56.3299 109.965C55.6452 110.557 54.7807 110.853 53.7363 110.853ZM56.208 105.074C56.1616 104.226 55.8947 103.588 55.4073 103.159C54.9199 102.718 54.2875 102.497 53.51 102.497C52.8021 102.497 52.1987 102.724 51.6997 103.176C51.2123 103.629 50.9396 104.261 50.8816 105.074H56.208ZM62.4945 110.887C61.8446 110.887 61.2644 110.777 60.7538 110.557C60.2549 110.336 59.8429 110.052 59.518 109.704C59.1931 109.356 58.9552 108.978 58.8043 108.572L60.3013 108.172C60.5566 108.613 60.8525 108.944 61.189 109.164C61.5255 109.373 61.9665 109.477 62.5119 109.477C63.0341 109.477 63.4635 109.361 63.8 109.129C64.1481 108.897 64.3222 108.561 64.3222 108.12C64.3222 107.644 64.1365 107.302 63.7652 107.093C63.4054 106.872 62.8832 106.692 62.1986 106.553C62.187 106.542 62.1754 106.536 62.1638 106.536C62.1638 106.536 62.158 106.536 62.1464 106.536C61.16 106.35 60.3999 106.054 59.8661 105.648C59.3323 105.23 59.0654 104.609 59.0654 103.786C59.0654 103.217 59.2047 102.712 59.4832 102.271C59.7733 101.819 60.1678 101.465 60.6668 101.209C61.1774 100.942 61.7518 100.809 62.39 100.809C63.3068 100.809 64.0495 101.006 64.6181 101.401C65.1983 101.784 65.5986 102.277 65.8191 102.88L64.5833 103.298C64.2351 102.869 63.9044 102.573 63.5911 102.41C63.2778 102.248 62.8774 102.167 62.39 102.167C61.8679 102.167 61.4385 102.312 61.102 102.602C60.777 102.88 60.6146 103.229 60.6146 103.646C60.6146 103.994 60.7306 104.279 60.9627 104.499C61.2064 104.708 61.5893 104.871 62.1115 104.987L63.0167 105.178C64.0147 105.375 64.7457 105.718 65.2099 106.205C65.6857 106.692 65.9236 107.267 65.9236 107.928C65.9236 108.439 65.7901 108.926 65.5232 109.39C65.2563 109.843 64.8618 110.209 64.3396 110.487C63.829 110.754 63.214 110.887 62.4945 110.887ZM71.3238 110.644C70.3142 110.644 69.5599 110.412 69.061 109.947C68.5736 109.483 68.3299 108.793 68.3299 107.876V102.584H66.6066V101.07C67.0592 101.07 67.4073 101.018 67.651 100.913C67.9063 100.809 68.0804 100.647 68.1732 100.426C68.2777 100.194 68.3299 99.84 68.3299 99.3643V98.0936H69.9487V101.07H72.5074V102.584H69.9487V107.789C69.9487 108.288 70.0705 108.648 70.3142 108.868C70.5695 109.089 70.9583 109.199 71.4805 109.199H72.5074V110.644H71.3238ZM77.5537 98.111H79.6599L84.0463 107.789L88.3806 98.111H90.4519V110.644H88.8679V100.809L84.9689 109.686H83.1238L79.1551 100.722L79.1725 110.644H77.5537V98.111ZM95.64 110.853C94.8045 110.853 94.056 110.649 93.3946 110.243C92.7447 109.837 92.3038 109.327 92.0717 108.712C91.8396 108.097 91.8976 107.493 92.2457 106.901C92.4546 106.542 92.7737 106.275 93.2031 106.101C93.6325 105.915 94.2823 105.718 95.1526 105.509L95.9881 105.282C96.6032 105.108 97.0615 104.946 97.3633 104.795C97.665 104.633 97.868 104.464 97.9725 104.29C98.0769 104.105 98.1233 103.873 98.1117 103.594C98.0885 103.141 97.8855 102.793 97.5025 102.55C97.1196 102.306 96.6728 102.184 96.1622 102.184C95.6748 102.184 95.2339 102.341 94.8393 102.654C94.4564 102.967 94.2069 103.374 94.0908 103.873H92.3154C92.5126 102.979 92.9536 102.254 93.6383 101.697C94.3229 101.14 95.1526 100.861 96.1274 100.861C96.8933 100.861 97.5489 101.018 98.0943 101.331C98.6513 101.633 99.0691 102.08 99.3476 102.671C99.6377 103.252 99.7828 103.942 99.7828 104.743C99.7828 105.706 99.8002 106.704 99.835 107.737C99.8698 108.77 99.922 109.657 99.9916 110.4L100.009 110.487L100.026 110.644H98.3902C98.3438 110.4 98.2974 110.069 98.251 109.652C97.9957 110.058 97.6418 110.359 97.1892 110.557C96.7366 110.754 96.2202 110.853 95.64 110.853ZM95.7619 109.634C96.1216 109.634 96.4639 109.559 96.7888 109.408C97.1254 109.245 97.4039 109.019 97.6244 108.729C97.8564 108.439 98.0015 108.097 98.0595 107.702C98.1988 107.006 98.2626 106.251 98.251 105.439C98.2162 105.567 97.8971 105.747 97.2936 105.979C96.6902 106.199 96.0984 106.391 95.5182 106.553L95.3093 106.605C94.8219 106.756 94.439 106.936 94.1605 107.145C93.882 107.354 93.7369 107.632 93.7253 107.98C93.7137 108.236 93.7949 108.491 93.969 108.746C94.1547 109.002 94.4042 109.216 94.7175 109.39C95.0308 109.553 95.3789 109.634 95.7619 109.634ZM101.418 101.07H103.28L103.071 102.637C103.152 102.393 103.327 102.132 103.593 101.853C103.872 101.575 104.22 101.343 104.638 101.157C105.056 100.96 105.526 100.861 106.048 100.861C106.64 100.861 107.185 101.006 107.684 101.296C108.195 101.575 108.601 102.016 108.902 102.619C109.216 103.223 109.372 103.994 109.372 104.934V110.644H107.649V104.743C107.649 104.012 107.44 103.449 107.023 103.054C106.616 102.648 106.117 102.445 105.526 102.445C105.119 102.445 104.736 102.55 104.377 102.759C104.017 102.967 103.721 103.269 103.489 103.664C103.269 104.047 103.158 104.499 103.158 105.021V110.644H101.418V101.07ZM114.422 110.853C113.691 110.853 113.047 110.69 112.49 110.365C111.945 110.04 111.521 109.599 111.219 109.042C110.918 108.474 110.767 107.853 110.767 107.18V101.07H112.438V106.727C112.438 107.528 112.618 108.155 112.977 108.607C113.337 109.048 113.906 109.269 114.683 109.269C115.449 109.269 116.024 109.048 116.407 108.607C116.801 108.155 116.998 107.54 116.998 106.762V101.07H118.739V109.06C118.739 109.582 118.762 110.11 118.809 110.644H117.068C117.056 110.562 117.051 110.464 117.051 110.348C117.051 110.22 117.056 110.087 117.068 109.947C117.068 109.797 117.068 109.611 117.068 109.39C116.894 109.797 116.563 110.145 116.076 110.435C115.6 110.713 115.049 110.853 114.422 110.853ZM121.45 102.602H120.371V101.07H121.45V99.9909C121.45 99.4571 121.566 98.9813 121.798 98.5636C122.03 98.1458 122.367 97.8209 122.808 97.5888C123.26 97.3567 123.788 97.2407 124.392 97.2407H125.21V98.7028H124.705C124.206 98.7028 123.812 98.8131 123.522 99.0335C123.243 99.2424 123.104 99.5615 123.104 99.9909V101.07H125.21V102.602H123.104V110.644H121.468L121.45 102.602ZM129.79 110.853C128.955 110.853 128.206 110.649 127.545 110.243C126.895 109.837 126.454 109.327 126.222 108.712C125.99 108.097 126.048 107.493 126.396 106.901C126.605 106.542 126.924 106.275 127.353 106.101C127.783 105.915 128.432 105.718 129.303 105.509L130.138 105.282C130.753 105.108 131.212 104.946 131.513 104.795C131.815 104.633 132.018 104.464 132.123 104.29C132.227 104.105 132.273 103.873 132.262 103.594C132.239 103.141 132.036 102.793 131.653 102.55C131.27 102.306 130.823 102.184 130.312 102.184C129.825 102.184 129.384 102.341 128.989 102.654C128.606 102.967 128.357 103.374 128.241 103.873H126.465C126.663 102.979 127.104 102.254 127.788 101.697C128.473 101.14 129.303 100.861 130.277 100.861C131.043 100.861 131.699 101.018 132.244 101.331C132.801 101.633 133.219 102.08 133.498 102.671C133.788 103.252 133.933 103.942 133.933 104.743C133.933 105.706 133.95 106.704 133.985 107.737C134.02 108.77 134.072 109.657 134.142 110.4L134.159 110.487L134.177 110.644H132.54C132.494 110.4 132.447 110.069 132.401 109.652C132.146 110.058 131.792 110.359 131.339 110.557C130.887 110.754 130.37 110.853 129.79 110.853ZM129.912 109.634C130.272 109.634 130.614 109.559 130.939 109.408C131.275 109.245 131.554 109.019 131.774 108.729C132.007 108.439 132.152 108.097 132.21 107.702C132.349 107.006 132.413 106.251 132.401 105.439C132.366 105.567 132.047 105.747 131.444 105.979C130.84 106.199 130.248 106.391 129.668 106.553L129.459 106.605C128.972 106.756 128.589 106.936 128.311 107.145C128.032 107.354 127.887 107.632 127.875 107.98C127.864 108.236 127.945 108.491 128.119 108.746C128.305 109.002 128.554 109.216 128.868 109.39C129.181 109.553 129.529 109.634 129.912 109.634ZM140.006 110.853C139.113 110.853 138.306 110.632 137.587 110.191C136.879 109.75 136.322 109.153 135.916 108.398C135.51 107.644 135.307 106.814 135.307 105.909C135.307 104.992 135.51 104.157 135.916 103.403C136.322 102.648 136.879 102.056 137.587 101.627C138.306 101.186 139.113 100.966 140.006 100.966C141.062 100.966 141.927 101.244 142.6 101.801C143.273 102.347 143.778 103.089 144.114 104.029L142.6 104.43C142.321 103.791 141.973 103.31 141.556 102.985C141.149 102.648 140.627 102.48 139.989 102.48C139.397 102.48 138.875 102.631 138.422 102.933C137.97 103.223 137.622 103.629 137.378 104.151C137.134 104.662 137.012 105.236 137.012 105.874C137.012 106.501 137.134 107.07 137.378 107.58C137.622 108.091 137.97 108.497 138.422 108.799C138.875 109.089 139.397 109.234 139.989 109.234C140.662 109.234 141.213 109.054 141.643 108.694C142.084 108.323 142.391 107.818 142.565 107.18H144.288C144.196 107.888 143.958 108.52 143.575 109.077C143.192 109.622 142.693 110.058 142.078 110.383C141.463 110.696 140.772 110.853 140.006 110.853ZM149.704 110.644C148.695 110.644 147.94 110.412 147.441 109.947C146.954 109.483 146.71 108.793 146.71 107.876V102.584H144.987V101.07C145.439 101.07 145.788 101.018 146.031 100.913C146.287 100.809 146.461 100.647 146.554 100.426C146.658 100.194 146.71 99.84 146.71 99.3643V98.0936H148.329V101.07H150.888V102.584H148.329V107.789C148.329 108.288 148.451 108.648 148.695 108.868C148.95 109.089 149.339 109.199 149.861 109.199H150.888V110.644H149.704ZM156.018 110.853C155.287 110.853 154.643 110.69 154.085 110.365C153.54 110.04 153.117 109.599 152.815 109.042C152.513 108.474 152.362 107.853 152.362 107.18V101.07H154.033V106.727C154.033 107.528 154.213 108.155 154.573 108.607C154.933 109.048 155.501 109.269 156.279 109.269C157.045 109.269 157.619 109.048 158.002 108.607C158.397 108.155 158.594 107.54 158.594 106.762V101.07H160.334V109.06C160.334 109.582 160.358 110.11 160.404 110.644H158.663C158.652 110.562 158.646 110.464 158.646 110.348C158.646 110.22 158.652 110.087 158.663 109.947C158.663 109.797 158.663 109.611 158.663 109.39C158.489 109.797 158.159 110.145 157.671 110.435C157.195 110.713 156.644 110.853 156.018 110.853ZM161.883 101.07H163.659L163.45 102.793C163.775 102.352 164.117 102.004 164.477 101.749C164.837 101.494 165.185 101.32 165.521 101.227C165.858 101.122 166.224 101.07 166.618 101.07H167.071V102.602H166.618C165.597 102.602 164.825 102.892 164.303 103.472C163.792 104.041 163.537 104.917 163.537 106.101V110.644H161.883V101.07ZM168.107 101.07H169.726V110.644H168.107V101.07ZM168.925 99.5209C168.635 99.5209 168.385 99.4223 168.177 99.225C167.968 99.0161 167.863 98.7666 167.863 98.4765C167.863 98.1864 167.968 97.9369 168.177 97.728C168.385 97.5192 168.635 97.4147 168.925 97.4147C169.215 97.4147 169.459 97.5192 169.656 97.728C169.865 97.9369 169.969 98.1864 169.969 98.4765C169.969 98.7666 169.865 99.0161 169.656 99.225C169.459 99.4223 169.215 99.5209 168.925 99.5209ZM171.299 101.07H173.161L172.952 102.637C173.033 102.393 173.208 102.132 173.474 101.853C173.753 101.575 174.101 101.343 174.519 101.157C174.937 100.96 175.407 100.861 175.929 100.861C176.521 100.861 177.066 101.006 177.565 101.296C178.076 101.575 178.482 102.016 178.783 102.619C179.097 103.223 179.253 103.994 179.253 104.934V110.644H177.53V104.743C177.53 104.012 177.321 103.449 176.904 103.054C176.497 102.648 175.998 102.445 175.407 102.445C175 102.445 174.617 102.55 174.258 102.759C173.898 102.967 173.602 103.269 173.37 103.664C173.15 104.047 173.039 104.499 173.039 105.021V110.644H171.299V101.07ZM185.044 113.603C184.336 113.603 183.68 113.464 183.077 113.185C182.485 112.918 181.98 112.541 181.562 112.054C181.156 111.566 180.889 111.009 180.762 110.383H182.45C182.694 110.986 183.024 111.421 183.442 111.688C183.871 111.967 184.417 112.106 185.078 112.106C185.914 112.106 186.54 111.874 186.958 111.41C187.376 110.945 187.585 110.319 187.585 109.53V102.376L187.411 101.07H189.221V109.443C189.221 110.232 189.076 110.934 188.786 111.549C188.507 112.175 188.055 112.674 187.428 113.046C186.813 113.417 186.018 113.603 185.044 113.603ZM184.835 109.913C184.034 109.913 183.326 109.71 182.711 109.303C182.096 108.897 181.62 108.346 181.284 107.65C180.959 106.953 180.796 106.182 180.796 105.335C180.796 104.499 180.959 103.739 181.284 103.054C181.62 102.37 182.09 101.836 182.694 101.453C183.297 101.058 183.988 100.861 184.765 100.861C185.531 100.861 186.134 101.006 186.575 101.296C187.028 101.575 187.364 101.958 187.585 102.445V108.468C187.341 108.897 186.976 109.245 186.488 109.512C186.001 109.779 185.45 109.913 184.835 109.913ZM184.991 108.398C185.85 108.398 186.494 108.131 186.923 107.598C187.353 107.064 187.567 106.356 187.567 105.474C187.567 104.58 187.341 103.832 186.889 103.229C186.436 102.625 185.804 102.323 184.991 102.323C184.492 102.323 184.046 102.457 183.651 102.724C183.268 102.991 182.972 103.356 182.763 103.82C182.554 104.273 182.45 104.778 182.45 105.335C182.45 106.228 182.665 106.965 183.094 107.545C183.535 108.114 184.167 108.398 184.991 108.398ZM43.8533 131.853C43.041 131.853 42.3158 131.719 41.6775 131.452C41.0509 131.185 40.5287 130.837 40.1109 130.408C39.6932 129.978 39.3799 129.508 39.171 128.998L40.929 128.545C41.2656 129.114 41.6601 129.549 42.1127 129.851C42.5653 130.141 43.1513 130.286 43.8707 130.286C44.6134 130.286 45.2168 130.118 45.681 129.781C46.1568 129.445 46.3947 128.963 46.3947 128.336C46.3947 128.07 46.3599 127.826 46.2903 127.605C46.2206 127.373 46.0988 127.176 45.9247 127.014C45.7158 126.816 45.4199 126.66 45.037 126.544C44.654 126.416 44.1609 126.294 43.5574 126.178C43.511 126.155 43.4588 126.143 43.4008 126.143C42.6581 125.981 42.0431 125.812 41.5557 125.638C41.0683 125.464 40.6621 125.203 40.3372 124.855C40.0471 124.553 39.8324 124.223 39.6932 123.863C39.5539 123.503 39.4843 123.091 39.4843 122.627C39.4843 121.919 39.6642 121.281 40.0239 120.712C40.3952 120.144 40.9 119.703 41.5383 119.389C42.1881 119.065 42.9134 118.902 43.7141 118.902C44.8513 118.902 45.7797 119.134 46.4991 119.598C47.2186 120.051 47.735 120.649 48.0483 121.391L46.621 121.896C46.1684 121.351 45.7274 120.968 45.2981 120.747C44.8803 120.515 44.3581 120.399 43.7315 120.399C43.2673 120.399 42.8438 120.498 42.4608 120.695C42.0895 120.881 41.7936 121.13 41.5731 121.443C41.3642 121.757 41.2598 122.093 41.2598 122.453C41.2598 122.94 41.4164 123.352 41.7297 123.689C42.0547 124.014 42.4782 124.223 43.0004 124.316L44.8629 124.646C45.9769 124.855 46.8124 125.273 47.3695 125.9C47.9381 126.526 48.2224 127.257 48.2224 128.093C48.2224 128.754 48.0483 129.375 47.7002 129.955C47.3637 130.524 46.8647 130.982 46.2032 131.33C45.5534 131.678 44.7701 131.853 43.8533 131.853ZM54.0253 131.853C53.1317 131.853 52.3368 131.655 51.6406 131.261C50.9443 130.855 50.3989 130.274 50.0044 129.52C49.6214 128.766 49.4299 127.872 49.4299 126.839C49.4299 125.923 49.6214 125.105 50.0044 124.385C50.3873 123.654 50.9095 123.085 51.571 122.679C52.2324 122.273 52.9693 122.07 53.7816 122.07C55.1509 122.07 56.2185 122.488 56.9844 123.323C57.7619 124.147 58.1506 125.302 58.1506 126.787C58.1506 127.066 58.139 127.28 58.1158 127.431H51.101C51.1706 128.29 51.4607 128.992 51.9713 129.537C52.4819 130.071 53.1665 130.338 54.0253 130.338C54.6287 130.338 55.1509 130.164 55.5919 129.816C56.0444 129.468 56.3693 128.986 56.5666 128.371H58.1158C57.8025 129.497 57.3035 130.361 56.6188 130.965C55.9342 131.557 55.0697 131.853 54.0253 131.853ZM56.497 126.074C56.4506 125.226 56.1837 124.588 55.6963 124.159C55.2089 123.718 54.5765 123.497 53.799 123.497C53.0911 123.497 52.4877 123.724 51.9887 124.176C51.5013 124.629 51.2286 125.261 51.1706 126.074H56.497ZM59.5352 122.07H61.3107L61.1018 123.793C61.4268 123.352 61.7691 123.004 62.1288 122.749C62.4885 122.494 62.8367 122.32 63.1732 122.227C63.5097 122.122 63.8753 122.07 64.2698 122.07H64.7224V123.602H64.2698C63.2486 123.602 62.4769 123.892 61.9547 124.472C61.4442 125.041 61.1889 125.917 61.1889 127.101V131.644H59.5352V122.07ZM65.4113 122.07H67.2216L70.1807 129.572L73.0179 122.07H74.776L71.0162 131.644H69.2407L65.4113 122.07ZM75.8049 122.07H77.4237V131.644H75.8049V122.07ZM76.623 120.521C76.3329 120.521 76.0834 120.422 75.8745 120.225C75.6656 120.016 75.5612 119.767 75.5612 119.477C75.5612 119.186 75.6656 118.937 75.8745 118.728C76.0834 118.519 76.3329 118.415 76.623 118.415C76.9131 118.415 77.1568 118.519 77.3541 118.728C77.5629 118.937 77.6674 119.186 77.6674 119.477C77.6674 119.767 77.5629 120.016 77.3541 120.225C77.1568 120.422 76.9131 120.521 76.623 120.521ZM83.4352 131.853C82.5417 131.853 81.7352 131.632 81.0157 131.191C80.3078 130.75 79.7508 130.153 79.3447 129.398C78.9385 128.644 78.7354 127.814 78.7354 126.909C78.7354 125.992 78.9385 125.157 79.3447 124.403C79.7508 123.648 80.3078 123.056 81.0157 122.627C81.7352 122.186 82.5417 121.966 83.4352 121.966C84.4912 121.966 85.3557 122.244 86.0288 122.801C86.7018 123.347 87.2066 124.089 87.5431 125.029L86.0288 125.43C85.7503 124.791 85.4021 124.31 84.9844 123.985C84.5782 123.648 84.056 123.48 83.4178 123.48C82.826 123.48 82.3038 123.631 81.8512 123.933C81.3986 124.223 81.0505 124.629 80.8068 125.151C80.5631 125.662 80.4413 126.236 80.4413 126.874C80.4413 127.501 80.5631 128.07 80.8068 128.58C81.0505 129.091 81.3986 129.497 81.8512 129.799C82.3038 130.089 82.826 130.234 83.4178 130.234C84.0908 130.234 84.642 130.054 85.0714 129.694C85.5124 129.323 85.8199 128.818 85.994 128.18H87.7172C87.6244 128.888 87.3865 129.52 87.0035 130.077C86.6206 130.622 86.1216 131.058 85.5066 131.383C84.8915 131.696 84.2011 131.853 83.4352 131.853ZM93.1729 131.853C92.2794 131.853 91.4845 131.655 90.7882 131.261C90.092 130.855 89.5466 130.274 89.152 129.52C88.7691 128.766 88.5776 127.872 88.5776 126.839C88.5776 125.923 88.7691 125.105 89.152 124.385C89.535 123.654 90.0571 123.085 90.7186 122.679C91.38 122.273 92.1169 122.07 92.9292 122.07C94.2985 122.07 95.3661 122.488 96.132 123.323C96.9095 124.147 97.2983 125.302 97.2983 126.787C97.2983 127.066 97.2867 127.28 97.2634 127.431H90.2486C90.3182 128.29 90.6084 128.992 91.1189 129.537C91.6295 130.071 92.3142 130.338 93.1729 130.338C93.7763 130.338 94.2985 130.164 94.7395 129.816C95.1921 129.468 95.517 128.986 95.7143 128.371H97.2634C96.9501 129.497 96.4511 130.361 95.7665 130.965C95.0818 131.557 94.2173 131.853 93.1729 131.853ZM95.6446 126.074C95.5982 125.226 95.3313 124.588 94.8439 124.159C94.3566 123.718 93.7241 123.497 92.9466 123.497C92.2388 123.497 91.6353 123.724 91.1364 124.176C90.649 124.629 90.3763 125.261 90.3182 126.074H95.6446ZM101.931 131.887C101.281 131.887 100.701 131.777 100.19 131.557C99.6915 131.336 99.2795 131.052 98.9546 130.704C98.6297 130.356 98.3918 129.978 98.2409 129.572L99.7379 129.172C99.9932 129.613 100.289 129.944 100.626 130.164C100.962 130.373 101.403 130.477 101.949 130.477C102.471 130.477 102.9 130.361 103.237 130.129C103.585 129.897 103.759 129.561 103.759 129.12C103.759 128.644 103.573 128.302 103.202 128.093C102.842 127.872 102.32 127.692 101.635 127.553C101.624 127.542 101.612 127.536 101.6 127.536C101.6 127.536 101.595 127.536 101.583 127.536C100.597 127.35 99.8365 127.054 99.3027 126.648C98.7689 126.23 98.502 125.609 98.502 124.786C98.502 124.217 98.6413 123.712 98.9198 123.271C99.2099 122.819 99.6044 122.465 100.103 122.209C100.614 121.942 101.188 121.809 101.827 121.809C102.743 121.809 103.486 122.006 104.055 122.401C104.635 122.784 105.035 123.277 105.256 123.88L104.02 124.298C103.672 123.869 103.341 123.573 103.028 123.41C102.714 123.248 102.314 123.167 101.827 123.167C101.304 123.167 100.875 123.312 100.539 123.602C100.214 123.88 100.051 124.229 100.051 124.646C100.051 124.994 100.167 125.279 100.399 125.499C100.643 125.708 101.026 125.871 101.548 125.987L102.453 126.178C103.451 126.375 104.182 126.718 104.647 127.205C105.122 127.692 105.36 128.267 105.36 128.928C105.36 129.439 105.227 129.926 104.96 130.39C104.693 130.843 104.298 131.209 103.776 131.487C103.266 131.754 102.651 131.887 101.931 131.887ZM111.387 123.602H110.308V122.07H111.387V120.991C111.387 120.457 111.503 119.981 111.735 119.564C111.967 119.146 112.304 118.821 112.745 118.589C113.197 118.357 113.725 118.241 114.329 118.241H115.147V119.703H114.642C114.143 119.703 113.749 119.813 113.458 120.034C113.18 120.242 113.041 120.562 113.041 120.991V122.07H115.147V123.602H113.041V131.644H111.404L111.387 123.602ZM120.218 131.748C119.302 131.748 118.489 131.539 117.782 131.121C117.085 130.692 116.546 130.112 116.163 129.381C115.78 128.65 115.588 127.826 115.588 126.909C115.588 126.004 115.78 125.186 116.163 124.455C116.557 123.712 117.103 123.132 117.799 122.714C118.495 122.285 119.302 122.07 120.218 122.07C121.112 122.07 121.907 122.285 122.603 122.714C123.311 123.143 123.862 123.73 124.257 124.472C124.651 125.203 124.849 126.016 124.849 126.909C124.849 127.814 124.651 128.638 124.257 129.381C123.874 130.112 123.328 130.692 122.621 131.121C121.913 131.539 121.112 131.748 120.218 131.748ZM120.201 130.147C120.781 130.147 121.292 130.002 121.733 129.712C122.185 129.421 122.533 129.033 122.777 128.545C123.021 128.046 123.143 127.501 123.143 126.909C123.143 126.317 123.021 125.772 122.777 125.273C122.533 124.774 122.185 124.385 121.733 124.107C121.292 123.817 120.781 123.671 120.201 123.671C119.609 123.671 119.093 123.817 118.652 124.107C118.211 124.385 117.869 124.774 117.625 125.273C117.393 125.76 117.277 126.306 117.277 126.909C117.277 127.513 117.393 128.058 117.625 128.545C117.869 129.033 118.211 129.421 118.652 129.712C119.093 130.002 119.609 130.147 120.201 130.147ZM126.221 122.07H127.996L127.787 123.793C128.112 123.352 128.454 123.004 128.814 122.749C129.174 122.494 129.522 122.32 129.858 122.227C130.195 122.122 130.561 122.07 130.955 122.07H131.408V123.602H130.955C129.934 123.602 129.162 123.892 128.64 124.472C128.129 125.041 127.874 125.917 127.874 127.101V131.644H126.221V122.07ZM141.011 119.111H142.961L148.131 131.644H146.407L145.085 128.371H138.888L137.548 131.644H135.842L141.011 119.111ZM144.406 126.787L141.986 121.008L139.549 126.787H144.406ZM149.696 119.111H151.314V131.644H149.696V119.111ZM153.044 119.111H154.663V131.644H153.044V119.111Z" fill="#262A2E"/>
<rect x="38.3877" y="145.088" width="169.989" height="6.9626" rx="1.74065" fill="#E1E3E8"/>
<rect x="38.3877" y="155.531" width="85.753" height="6.9626" rx="1.74065" fill="#E1E3E8"/>
<rect x="38.3877" y="172.938" width="59.7209" height="16.8443" rx="8.42217" fill="#66A9FF"/>
<rect x="236.822" y="84.6418" width="161.881" height="113.142" rx="6.9626" fill="#F7F8F9"/>
<g opacity="0.4">
<path d="M334.516 124.459H301.009C300.201 124.459 299.426 124.78 298.855 125.352C298.283 125.923 297.962 126.698 297.962 127.506V154.921C297.962 155.729 298.283 156.504 298.855 157.075C299.426 157.646 300.201 157.967 301.009 157.967H334.516C335.324 157.967 336.099 157.646 336.67 157.075C337.241 156.504 337.562 155.729 337.562 154.921V127.506C337.562 126.698 337.241 125.923 336.67 125.352C336.099 124.78 335.324 124.459 334.516 124.459ZM323.093 133.598C323.545 133.598 323.987 133.732 324.362 133.983C324.738 134.234 325.031 134.591 325.204 135.008C325.377 135.426 325.422 135.885 325.334 136.328C325.246 136.771 325.028 137.178 324.709 137.498C324.389 137.817 323.982 138.035 323.539 138.123C323.096 138.211 322.636 138.166 322.219 137.993C321.801 137.82 321.445 137.527 321.193 137.152C320.942 136.776 320.808 136.334 320.808 135.882C320.808 135.277 321.049 134.695 321.478 134.267C321.906 133.839 322.487 133.598 323.093 133.598ZM301.009 154.921V149.59L310.908 139.69L326.139 154.921H301.009ZM334.516 154.921H330.448L323.594 148.067L327.401 144.259L334.516 151.376V154.921Z" fill="#CFD1D4"/>
</g>
<mask id="path-10-inside-1_183_27274" fill="white">
<path d="M17.5 49.4949C17.5 47.7634 18.9037 46.3597 20.6352 46.3597H418.769C420.501 46.3597 421.904 47.7634 421.904 49.4949V62.9763H17.5V49.4949Z"/>
</mask>
<path d="M17.5 49.4949C17.5 47.7634 18.9037 46.3597 20.6352 46.3597H418.769C420.501 46.3597 421.904 47.7634 421.904 49.4949V62.9763H17.5V49.4949Z" fill="white"/>
<path d="M17.5 46.3597H421.904H17.5ZM421.904 63.8466H17.5V62.1059H421.904V63.8466ZM17.5 62.9763V46.3597V62.9763ZM421.904 46.3597V62.9763V46.3597Z" fill="#F1F2F3" mask="url(#path-10-inside-1_183_27274)"/>
<g filter="url(#filter1_i_183_27274)">
<path fill-rule="evenodd" clip-rule="evenodd" d="M26.9734 57.6608C28.36 57.6608 29.484 56.4918 29.484 55.0498C29.484 53.6078 28.36 52.4388 26.9734 52.4388C25.5869 52.4388 24.4629 53.6078 24.4629 55.0498C24.4629 56.4918 25.5869 57.6608 26.9734 57.6608Z" fill="#FB3748"/>
</g>
<path d="M26.9736 52.517C28.3139 52.5171 29.4053 53.6486 29.4053 55.0502C29.4051 56.4516 28.3138 57.5823 26.9736 57.5824C25.6334 57.5824 24.5412 56.4516 24.541 55.0502C24.541 53.6485 25.6332 52.517 26.9736 52.517Z" stroke="#D00416" stroke-width="0.15676"/>
<g filter="url(#filter2_i_183_27274)">
<path fill-rule="evenodd" clip-rule="evenodd" d="M35.3421 57.6608C36.7286 57.6608 37.8527 56.4918 37.8527 55.0498C37.8527 53.6078 36.7286 52.4388 35.3421 52.4388C33.9556 52.4388 32.8315 53.6078 32.8315 55.0498C32.8315 56.4918 33.9556 57.6608 35.3421 57.6608Z" fill="#FFDB43"/>
</g>
<path d="M35.3423 52.517C36.6826 52.5171 37.7739 53.6486 37.7739 55.0502C37.7737 56.4516 36.6825 57.5823 35.3423 57.5824C34.002 57.5824 32.9099 56.4516 32.9097 55.0502C32.9097 53.6485 34.0019 52.517 35.3423 52.517Z" stroke="#DFB400" stroke-width="0.15676"/>
<g filter="url(#filter3_i_183_27274)">
<path fill-rule="evenodd" clip-rule="evenodd" d="M43.7107 57.6608C45.0973 57.6608 46.2213 56.4918 46.2213 55.0498C46.2213 53.6078 45.0973 52.4388 43.7107 52.4388C42.3242 52.4388 41.2002 53.6078 41.2002 55.0498C41.2002 56.4918 42.3242 57.6608 43.7107 57.6608Z" fill="#84EBB4"/>
</g>
<path d="M43.7109 52.517C45.0512 52.5171 46.1426 53.6486 46.1426 55.0502C46.1424 56.4516 45.0511 57.5823 43.7109 57.5824C42.3707 57.5824 41.2785 56.4516 41.2783 55.0502C41.2783 53.6485 42.3706 52.517 43.7109 52.517Z" stroke="#1FC16B" stroke-width="0.15676"/>
<path d="M107.867 193.91L108.178 193.287C108.215 193.214 108.28 193.158 108.358 193.131C108.437 193.105 108.522 193.111 108.596 193.148C108.67 193.185 108.726 193.25 108.752 193.328C108.778 193.407 108.772 193.492 108.735 193.566L108.424 194.189C108.405 194.225 108.38 194.258 108.349 194.285C108.318 194.311 108.282 194.332 108.244 194.345C108.205 194.358 108.164 194.363 108.123 194.36C108.082 194.357 108.043 194.346 108.006 194.328C107.969 194.309 107.937 194.284 107.91 194.253C107.883 194.222 107.863 194.186 107.85 194.148C107.837 194.109 107.832 194.068 107.835 194.027C107.838 193.986 107.849 193.947 107.867 193.91ZM103.787 196.851H104.099C104.181 196.851 104.26 196.818 104.319 196.76C104.377 196.701 104.41 196.622 104.41 196.539C104.41 196.457 104.377 196.378 104.319 196.319C104.26 196.261 104.181 196.228 104.099 196.228H103.787C103.705 196.228 103.626 196.261 103.567 196.319C103.509 196.378 103.476 196.457 103.476 196.539C103.476 196.622 103.509 196.701 103.567 196.76C103.626 196.818 103.705 196.851 103.787 196.851ZM106.9 194.049C106.983 194.049 107.062 194.017 107.12 193.958C107.179 193.9 107.211 193.821 107.211 193.738V193.427C107.211 193.344 107.179 193.265 107.12 193.207C107.062 193.148 106.983 193.116 106.9 193.116C106.818 193.116 106.738 193.148 106.68 193.207C106.622 193.265 106.589 193.344 106.589 193.427V193.738C106.589 193.821 106.622 193.9 106.68 193.958C106.738 194.017 106.818 194.049 106.9 194.049ZM104.271 197.506L103.648 197.818C103.574 197.855 103.518 197.919 103.492 197.998C103.466 198.076 103.472 198.161 103.509 198.235C103.546 198.309 103.611 198.365 103.689 198.391C103.767 198.417 103.853 198.411 103.927 198.374L104.549 198.063C104.586 198.045 104.618 198.02 104.645 197.989C104.672 197.958 104.692 197.922 104.705 197.883C104.718 197.844 104.723 197.803 104.72 197.763C104.718 197.722 104.707 197.682 104.688 197.645C104.67 197.609 104.645 197.576 104.614 197.55C104.583 197.523 104.547 197.502 104.508 197.489C104.469 197.476 104.429 197.471 104.388 197.474C104.347 197.477 104.307 197.488 104.271 197.506ZM109.549 198.125L111.507 197.274C111.622 197.223 111.719 197.138 111.785 197.032C111.851 196.925 111.883 196.801 111.877 196.675C111.871 196.55 111.827 196.429 111.751 196.329C111.676 196.229 111.571 196.154 111.452 196.114L105.224 194.08C105.115 194.045 104.998 194.04 104.887 194.067C104.775 194.093 104.673 194.15 104.592 194.231C104.511 194.313 104.454 194.414 104.427 194.526C104.401 194.638 104.405 194.754 104.441 194.863L106.475 201.092C106.513 201.212 106.587 201.317 106.688 201.394C106.788 201.471 106.909 201.514 107.035 201.52H107.066C107.187 201.52 107.305 201.485 107.406 201.419C107.507 201.352 107.587 201.258 107.634 201.147L108.486 199.188L110.635 201.337C110.693 201.395 110.762 201.441 110.837 201.472C110.913 201.504 110.994 201.52 111.076 201.52C111.157 201.52 111.238 201.504 111.314 201.472C111.389 201.441 111.458 201.395 111.516 201.337L111.698 201.155C111.756 201.097 111.802 201.029 111.833 200.953C111.864 200.878 111.88 200.797 111.88 200.715C111.88 200.633 111.864 200.552 111.833 200.477C111.802 200.401 111.756 200.332 111.698 200.275L109.549 198.125Z" fill="#111827"/>
</g>
<rect x="17.0648" y="45.9125" width="404.557" height="247.151" rx="7.54988" stroke="#E1E3E8" stroke-width="0.870325"/>
</g>
<g filter="url(#filter4_dd_183_27274)">
<g clip-path="url(#clip1_183_27274)">
<rect x="388.986" y="14.0325" width="132.513" height="220.853" rx="10.4546" fill="white"/>
<path d="M398.043 74.2226H401.632C402.532 74.2226 403.199 74.4852 403.633 75.0104C404.066 75.5356 404.195 76.1233 404.02 76.7735C403.854 77.4238 403.433 77.8906 402.757 78.174C403.058 78.2324 403.341 78.3616 403.608 78.5617C403.883 78.7534 404.104 79.0202 404.271 79.362C404.446 79.6955 404.533 80.0789 404.533 80.5124C404.533 81.071 404.421 81.5545 404.195 81.963C403.97 82.3715 403.654 82.6841 403.245 82.9008C402.837 83.1176 402.361 83.226 401.82 83.226H398.043V74.2226ZM401.57 82.063C402.136 82.063 402.578 81.938 402.895 81.6879C403.212 81.4294 403.37 81.0418 403.37 80.5249C403.37 80.0247 403.216 79.6246 402.908 79.3245C402.607 79.016 402.161 78.8618 401.57 78.8618H399.206V82.0755L401.57 82.063ZM401.407 77.924C401.715 77.924 401.991 77.8614 402.232 77.7364C402.482 77.6113 402.678 77.4404 402.82 77.2237C402.962 76.9986 403.033 76.7443 403.033 76.4609C403.033 76.0357 402.883 75.7273 402.582 75.5356C402.282 75.3438 401.89 75.2479 401.407 75.2479H399.169V77.924H401.407ZM408.507 83.376C407.865 83.376 407.294 83.2343 406.794 82.9508C406.293 82.6591 405.902 82.2422 405.618 81.7004C405.343 81.1585 405.206 80.5166 405.206 79.7747C405.206 79.1161 405.343 78.5283 405.618 78.0115C405.893 77.4863 406.268 77.0778 406.744 76.786C407.219 76.4942 407.748 76.3484 408.332 76.3484C409.315 76.3484 410.082 76.6485 410.633 77.2487C411.191 77.8406 411.47 78.6701 411.47 79.7371C411.47 79.9372 411.462 80.0914 411.445 80.1998H406.406C406.456 80.8167 406.664 81.3211 407.031 81.7129C407.398 82.0964 407.89 82.2881 408.507 82.2881C408.94 82.2881 409.315 82.1631 409.632 81.913C409.957 81.6629 410.191 81.3169 410.332 80.8751H411.445C411.22 81.6837 410.862 82.3048 410.37 82.7383C409.878 83.1634 409.257 83.376 408.507 83.376ZM410.282 79.2244C410.249 78.6159 410.057 78.1574 409.707 77.8489C409.357 77.5321 408.903 77.3737 408.344 77.3737C407.836 77.3737 407.402 77.5363 407.044 77.8614C406.694 78.1866 406.498 78.6409 406.456 79.2244H410.282ZM414.799 83.401C414.332 83.401 413.915 83.3218 413.548 83.1634C413.19 83.005 412.894 82.8008 412.66 82.5507C412.427 82.3006 412.256 82.0297 412.148 81.7379L413.223 81.4503C413.406 81.7671 413.619 82.0047 413.861 82.1631C414.103 82.3131 414.419 82.3881 414.811 82.3881C415.186 82.3881 415.495 82.3048 415.736 82.138C415.987 81.9713 416.112 81.7296 416.112 81.4128C416.112 81.071 415.978 80.825 415.711 80.675C415.453 80.5166 415.078 80.3874 414.586 80.2873C414.578 80.279 414.569 80.2748 414.561 80.2748C414.561 80.2748 414.557 80.2748 414.549 80.2748C413.84 80.1415 413.294 79.9289 412.91 79.6371C412.527 79.337 412.335 78.891 412.335 78.2991C412.335 77.8906 412.435 77.528 412.635 77.2112C412.844 76.8861 413.127 76.6318 413.486 76.4484C413.852 76.2567 414.265 76.1608 414.724 76.1608C415.382 76.1608 415.916 76.3025 416.324 76.586C416.741 76.8611 417.029 77.2154 417.187 77.6489L416.299 77.949C416.049 77.6405 415.811 77.4279 415.586 77.3112C415.361 77.1945 415.074 77.1362 414.724 77.1362C414.348 77.1362 414.04 77.2404 413.798 77.4488C413.565 77.6489 413.448 77.8989 413.448 78.1991C413.448 78.4492 413.531 78.6534 413.698 78.8118C413.873 78.9618 414.148 79.0786 414.524 79.1619L415.174 79.2995C415.891 79.4412 416.416 79.6871 416.749 80.0373C417.091 80.3874 417.262 80.8 417.262 81.2752C417.262 81.642 417.166 81.9922 416.974 82.3256C416.783 82.6507 416.499 82.9133 416.124 83.1134C415.757 83.3051 415.315 83.401 414.799 83.401ZM421.142 83.226C420.416 83.226 419.874 83.0592 419.516 82.7258C419.166 82.3923 418.991 81.8963 418.991 81.2377V77.4363H417.753V76.3484C418.078 76.3484 418.328 76.3108 418.503 76.2358C418.686 76.1608 418.811 76.0441 418.878 75.8857C418.953 75.719 418.991 75.4647 418.991 75.1229V74.2101H420.154V76.3484H421.992V77.4363H420.154V81.1752C420.154 81.5336 420.241 81.7921 420.416 81.9505C420.6 82.1089 420.879 82.1881 421.254 82.1881H421.992V83.226H421.142ZM425.617 74.2226H427.13L430.281 81.1752L433.395 74.2226H434.883V83.226H433.745V76.1608L430.944 82.5382H429.619L426.767 76.0983L426.78 83.226H425.617V74.2226ZM438.61 83.376C438.01 83.376 437.472 83.2301 436.997 82.9383C436.53 82.6466 436.213 82.2798 436.047 81.8379C435.88 81.3961 435.922 80.9626 436.172 80.5374C436.322 80.279 436.551 80.0873 436.859 79.9622C437.168 79.8288 437.635 79.6871 438.26 79.5371L438.86 79.3745C439.302 79.2495 439.631 79.1327 439.848 79.0244C440.065 78.9077 440.211 78.7868 440.286 78.6617C440.361 78.5283 440.394 78.3616 440.386 78.1615C440.369 77.8364 440.223 77.5863 439.948 77.4113C439.673 77.2362 439.352 77.1487 438.985 77.1487C438.635 77.1487 438.318 77.2612 438.035 77.4863C437.76 77.7114 437.581 78.0032 437.497 78.3616H436.222C436.363 77.7197 436.68 77.1987 437.172 76.7985C437.664 76.3984 438.26 76.1983 438.96 76.1983C439.51 76.1983 439.981 76.3108 440.373 76.5359C440.773 76.7527 441.074 77.0736 441.274 77.4988C441.482 77.9156 441.586 78.4116 441.586 78.9869C441.586 79.6788 441.599 80.3957 441.624 81.1377C441.649 81.8796 441.686 82.5174 441.736 83.0509L441.749 83.1134L441.761 83.226H440.586C440.553 83.0509 440.519 82.8133 440.486 82.5132C440.302 82.805 440.048 83.0217 439.723 83.1634C439.398 83.3051 439.027 83.376 438.61 83.376ZM438.698 82.5007C438.956 82.5007 439.202 82.4465 439.435 82.3381C439.677 82.2214 439.877 82.0588 440.036 81.8504C440.202 81.642 440.307 81.3961 440.348 81.1127C440.448 80.6125 440.494 80.0706 440.486 79.487C440.461 79.5787 440.232 79.708 439.798 79.8747C439.365 80.0331 438.939 80.1706 438.523 80.2873L438.373 80.3249C438.022 80.4332 437.747 80.5624 437.547 80.7125C437.347 80.8626 437.243 81.0626 437.235 81.3127C437.226 81.4961 437.285 81.6795 437.41 81.8629C437.543 82.0463 437.722 82.2006 437.947 82.3256C438.172 82.4423 438.423 82.5007 438.698 82.5007ZM442.761 76.3484H444.099L443.949 77.4738C444.007 77.2987 444.132 77.1111 444.324 76.9111C444.524 76.711 444.774 76.5443 445.074 76.4109C445.374 76.2692 445.712 76.1983 446.087 76.1983C446.512 76.1983 446.904 76.3025 447.262 76.5109C447.629 76.711 447.921 77.0278 448.138 77.4613C448.363 77.8948 448.475 78.4492 448.475 79.1244V83.226H447.237V78.9869C447.237 78.4617 447.087 78.0573 446.787 77.7739C446.495 77.4821 446.137 77.3362 445.712 77.3362C445.42 77.3362 445.145 77.4113 444.887 77.5613C444.628 77.7114 444.415 77.9281 444.249 78.2116C444.09 78.4867 444.011 78.8118 444.011 79.1869V83.226H442.761V76.3484ZM452.103 83.376C451.578 83.376 451.115 83.2593 450.715 83.0259C450.323 82.7925 450.019 82.4757 449.802 82.0755C449.585 81.667 449.477 81.221 449.477 80.7375V76.3484H450.678V80.4124C450.678 80.9876 450.807 81.4378 451.065 81.7629C451.324 82.0797 451.732 82.2381 452.291 82.2381C452.841 82.2381 453.254 82.0797 453.529 81.7629C453.812 81.4378 453.954 80.9959 453.954 80.4374V76.3484H455.204V82.088C455.204 82.4632 455.221 82.8425 455.254 83.226H454.004C453.995 83.1676 453.991 83.0967 453.991 83.0134C453.991 82.9217 453.995 82.8258 454.004 82.7258C454.004 82.6174 454.004 82.484 454.004 82.3256C453.879 82.6174 453.641 82.8675 453.291 83.0759C452.949 83.276 452.553 83.376 452.103 83.376ZM457.152 77.4488H456.377V76.3484H457.152V75.5731C457.152 75.1896 457.235 74.8478 457.402 74.5477C457.569 74.2476 457.811 74.0141 458.127 73.8474C458.452 73.6807 458.832 73.5973 459.265 73.5973H459.853V74.6477H459.49C459.132 74.6477 458.848 74.7269 458.64 74.8853C458.44 75.0354 458.34 75.2646 458.34 75.5731V76.3484H459.853V77.4488H458.34V83.226H457.164L457.152 77.4488ZM463.143 83.376C462.543 83.376 462.005 83.2301 461.53 82.9383C461.063 82.6466 460.747 82.2798 460.58 81.8379C460.413 81.3961 460.455 80.9626 460.705 80.5374C460.855 80.279 461.084 80.0873 461.393 79.9622C461.701 79.8288 462.168 79.6871 462.793 79.5371L463.393 79.3745C463.835 79.2495 464.165 79.1327 464.381 79.0244C464.598 78.9077 464.744 78.7868 464.819 78.6617C464.894 78.5283 464.927 78.3616 464.919 78.1615C464.902 77.8364 464.756 77.5863 464.481 77.4113C464.206 77.2362 463.885 77.1487 463.518 77.1487C463.168 77.1487 462.852 77.2612 462.568 77.4863C462.293 77.7114 462.114 78.0032 462.03 78.3616H460.755C460.897 77.7197 461.213 77.1987 461.705 76.7985C462.197 76.3984 462.793 76.1983 463.493 76.1983C464.044 76.1983 464.515 76.3108 464.906 76.5359C465.307 76.7527 465.607 77.0736 465.807 77.4988C466.015 77.9156 466.119 78.4116 466.119 78.9869C466.119 79.6788 466.132 80.3957 466.157 81.1377C466.182 81.8796 466.219 82.5174 466.269 83.0509L466.282 83.1134L466.294 83.226H465.119C465.086 83.0509 465.052 82.8133 465.019 82.5132C464.836 82.805 464.581 83.0217 464.256 83.1634C463.931 83.3051 463.56 83.376 463.143 83.376ZM463.231 82.5007C463.489 82.5007 463.735 82.4465 463.969 82.3381C464.21 82.2214 464.41 82.0588 464.569 81.8504C464.736 81.642 464.84 81.3961 464.881 81.1127C464.981 80.6125 465.027 80.0706 465.019 79.487C464.994 79.5787 464.765 79.708 464.331 79.8747C463.898 80.0331 463.473 80.1706 463.056 80.2873L462.906 80.3249C462.556 80.4332 462.28 80.5624 462.08 80.7125C461.88 80.8626 461.776 81.0626 461.768 81.3127C461.759 81.4961 461.818 81.6795 461.943 81.8629C462.076 82.0463 462.255 82.2006 462.481 82.3256C462.706 82.4423 462.956 82.5007 463.231 82.5007ZM470.483 83.376C469.841 83.376 469.261 83.2176 468.744 82.9008C468.236 82.584 467.836 82.1547 467.544 81.6128C467.252 81.071 467.106 80.4749 467.106 79.8247C467.106 79.1661 467.252 78.5659 467.544 78.024C467.836 77.4821 468.236 77.057 468.744 76.7485C469.261 76.4317 469.841 76.2733 470.483 76.2733C471.241 76.2733 471.862 76.4734 472.346 76.8736C472.829 77.2654 473.192 77.7989 473.434 78.4742L472.346 78.7618C472.146 78.3033 471.896 77.9573 471.595 77.7239C471.304 77.4821 470.929 77.3612 470.47 77.3612C470.045 77.3612 469.67 77.4696 469.345 77.6864C469.02 77.8948 468.769 78.1866 468.594 78.5617C468.419 78.9285 468.332 79.3412 468.332 79.7997C468.332 80.2498 468.419 80.6583 468.594 81.0251C468.769 81.3919 469.02 81.6837 469.345 81.9005C469.67 82.1089 470.045 82.2131 470.47 82.2131C470.954 82.2131 471.35 82.0839 471.658 81.8254C471.975 81.5587 472.196 81.196 472.321 80.7375H473.559C473.492 81.246 473.321 81.7004 473.046 82.1005C472.771 82.4923 472.412 82.805 471.971 83.0384C471.529 83.2635 471.033 83.376 470.483 83.376ZM477.449 83.226C476.724 83.226 476.182 83.0592 475.824 82.7258C475.474 82.3923 475.299 81.8963 475.299 81.2377V77.4363H474.061V76.3484C474.386 76.3484 474.636 76.3108 474.811 76.2358C474.994 76.1608 475.119 76.0441 475.186 75.8857C475.261 75.719 475.299 75.4647 475.299 75.1229V74.2101H476.461V76.3484H478.3V77.4363H476.461V81.1752C476.461 81.5336 476.549 81.7921 476.724 81.9505C476.907 82.1089 477.187 82.1881 477.562 82.1881H478.3V83.226H477.449ZM481.985 83.376C481.46 83.376 480.997 83.2593 480.597 83.0259C480.205 82.7925 479.901 82.4757 479.684 82.0755C479.467 81.667 479.359 81.221 479.359 80.7375V76.3484H480.559V80.4124C480.559 80.9876 480.689 81.4378 480.947 81.7629C481.205 82.0797 481.614 82.2381 482.173 82.2381C482.723 82.2381 483.135 82.0797 483.41 81.7629C483.694 81.4378 483.836 80.9959 483.836 80.4374V76.3484H485.086V82.088C485.086 82.4632 485.103 82.8425 485.136 83.226H483.886C483.877 83.1676 483.873 83.0967 483.873 83.0134C483.873 82.9217 483.877 82.8258 483.886 82.7258C483.886 82.6174 483.886 82.484 483.886 82.3256C483.761 82.6174 483.523 82.8675 483.173 83.0759C482.831 83.276 482.435 83.376 481.985 83.376ZM486.199 76.3484H487.474L487.324 77.5863C487.558 77.2695 487.804 77.0194 488.062 76.836C488.321 76.6526 488.571 76.5276 488.812 76.4609C489.054 76.3859 489.317 76.3484 489.6 76.3484H489.925V77.4488H489.6C488.867 77.4488 488.312 77.6572 487.937 78.074C487.57 78.4825 487.387 79.1119 487.387 79.9622V83.226H486.199V76.3484ZM490.67 76.3484H491.833V83.226H490.67V76.3484ZM491.258 75.2354C491.049 75.2354 490.87 75.1646 490.72 75.0229C490.57 74.8728 490.495 74.6936 490.495 74.4852C490.495 74.2767 490.57 74.0975 490.72 73.9475C490.87 73.7974 491.049 73.7224 491.258 73.7224C491.466 73.7224 491.641 73.7974 491.783 73.9475C491.933 74.0975 492.008 74.2767 492.008 74.4852C492.008 74.6936 491.933 74.8728 491.783 75.0229C491.641 75.1646 491.466 75.2354 491.258 75.2354ZM492.963 76.3484H494.301L494.151 77.4738C494.209 77.2987 494.334 77.1111 494.526 76.9111C494.726 76.711 494.976 76.5443 495.276 76.4109C495.576 76.2692 495.914 76.1983 496.289 76.1983C496.714 76.1983 497.106 76.3025 497.464 76.5109C497.831 76.711 498.123 77.0278 498.34 77.4613C498.565 77.8948 498.677 78.4492 498.677 79.1244V83.226H497.439V78.9869C497.439 78.4617 497.289 78.0573 496.989 77.7739C496.697 77.4821 496.339 77.3362 495.914 77.3362C495.622 77.3362 495.347 77.4113 495.089 77.5613C494.83 77.7114 494.618 77.9281 494.451 78.2116C494.292 78.4867 494.213 78.8118 494.213 79.1869V83.226H492.963V76.3484ZM502.837 85.3518C502.328 85.3518 501.857 85.2517 501.424 85.0516C500.999 84.8599 500.636 84.589 500.336 84.2388C500.044 83.8887 499.852 83.4886 499.761 83.0384H500.974C501.149 83.4719 501.386 83.7845 501.687 83.9762C501.995 84.1763 502.387 84.2763 502.862 84.2763C503.462 84.2763 503.912 84.1096 504.212 83.7762C504.513 83.4427 504.663 82.9925 504.663 82.4257V77.2862L504.538 76.3484H505.838V82.3631C505.838 82.93 505.734 83.4344 505.525 83.8762C505.325 84.3264 505 84.6848 504.55 84.9516C504.108 85.2184 503.537 85.3518 502.837 85.3518ZM502.687 82.7008C502.112 82.7008 501.603 82.5549 501.161 82.2631C500.719 81.9713 500.378 81.5753 500.136 81.0751C499.903 80.575 499.786 80.0206 499.786 79.412C499.786 78.8118 499.903 78.2658 500.136 77.7739C500.378 77.282 500.715 76.8986 501.149 76.6235C501.582 76.34 502.078 76.1983 502.637 76.1983C503.187 76.1983 503.621 76.3025 503.937 76.5109C504.262 76.711 504.504 76.9861 504.663 77.3362V81.6629C504.488 81.9713 504.225 82.2214 503.875 82.4131C503.525 82.6049 503.129 82.7008 502.687 82.7008ZM502.799 81.6128C503.416 81.6128 503.879 81.4211 504.187 81.0376C504.496 80.6541 504.65 80.1456 504.65 79.5121C504.65 78.8701 504.488 78.3324 504.162 77.8989C503.837 77.4654 503.383 77.2487 502.799 77.2487C502.441 77.2487 502.12 77.3446 501.837 77.5363C501.561 77.728 501.349 77.9906 501.199 78.3241C501.049 78.6492 500.974 79.0119 500.974 79.412C500.974 80.0539 501.128 80.5833 501.436 81.0001C501.753 81.4086 502.208 81.6128 502.799 81.6128ZM401.407 98.376C400.823 98.376 400.302 98.2801 399.844 98.0884C399.394 97.8967 399.019 97.6466 398.718 97.3381C398.418 97.0297 398.193 96.692 398.043 96.3252L399.306 96.0001C399.548 96.4086 399.831 96.7212 400.156 96.938C400.482 97.1464 400.903 97.2506 401.419 97.2506C401.953 97.2506 402.386 97.1297 402.72 96.8879C403.062 96.6462 403.233 96.3002 403.233 95.8501C403.233 95.6583 403.208 95.4833 403.158 95.3249C403.108 95.1581 403.02 95.0164 402.895 94.8997C402.745 94.758 402.532 94.6454 402.257 94.5621C401.982 94.4704 401.628 94.3828 401.194 94.2995C401.161 94.2828 401.124 94.2745 401.082 94.2745C400.548 94.1578 400.106 94.0369 399.756 93.9118C399.406 93.7868 399.114 93.5992 398.881 93.3491C398.673 93.1324 398.518 92.8948 398.418 92.6363C398.318 92.3779 398.268 92.082 398.268 91.7485C398.268 91.24 398.397 90.7815 398.656 90.373C398.923 89.9645 399.285 89.6477 399.744 89.4226C400.211 89.1892 400.732 89.0725 401.307 89.0725C402.124 89.0725 402.791 89.2392 403.308 89.5727C403.825 89.8978 404.195 90.3271 404.421 90.8607L403.395 91.2233C403.07 90.8315 402.753 90.5564 402.445 90.398C402.145 90.2313 401.77 90.1479 401.319 90.1479C400.986 90.1479 400.682 90.2188 400.407 90.3605C400.14 90.4939 399.927 90.6731 399.769 90.8982C399.619 91.1233 399.544 91.365 399.544 91.6235C399.544 91.9736 399.656 92.2695 399.881 92.5113C400.115 92.7447 400.419 92.8948 400.794 92.9615L402.132 93.1991C402.933 93.3491 403.533 93.6492 403.933 94.0994C404.341 94.5496 404.546 95.0748 404.546 95.675C404.546 96.1502 404.421 96.5962 404.17 97.013C403.929 97.4215 403.57 97.7508 403.095 98.0009C402.628 98.251 402.066 98.376 401.407 98.376ZM408.714 98.376C408.072 98.376 407.501 98.2343 407.001 97.9508C406.501 97.6591 406.109 97.2422 405.826 96.7004C405.551 96.1585 405.413 95.5166 405.413 94.7747C405.413 94.1161 405.551 93.5283 405.826 93.0115C406.101 92.4863 406.476 92.0778 406.951 91.786C407.426 91.4942 407.956 91.3484 408.539 91.3484C409.523 91.3484 410.29 91.6485 410.84 92.2487C411.399 92.8406 411.678 93.6701 411.678 94.7371C411.678 94.9372 411.67 95.0914 411.653 95.1998H406.614C406.664 95.8167 406.872 96.3211 407.239 96.7129C407.606 97.0964 408.097 97.2881 408.714 97.2881C409.148 97.2881 409.523 97.1631 409.84 96.913C410.165 96.6629 410.398 96.3169 410.54 95.8751H411.653C411.428 96.6837 411.069 97.3048 410.578 97.7383C410.086 98.1634 409.465 98.376 408.714 98.376ZM410.49 94.2244C410.457 93.6159 410.265 93.1574 409.915 92.8489C409.565 92.5321 409.11 92.3737 408.552 92.3737C408.043 92.3737 407.61 92.5363 407.251 92.8614C406.901 93.1866 406.705 93.6409 406.664 94.2244H410.49ZM412.673 91.3484H413.948L413.798 92.5863C414.032 92.2695 414.277 92.0194 414.536 91.836C414.794 91.6526 415.044 91.5276 415.286 91.4609C415.528 91.3859 415.791 91.3484 416.074 91.3484H416.399V92.4488H416.074C415.34 92.4488 414.786 92.6572 414.411 93.074C414.044 93.4825 413.861 94.1119 413.861 94.9622V98.226H412.673V91.3484ZM416.894 91.3484H418.195L420.32 96.7379L422.359 91.3484H423.622L420.921 98.226H419.645L416.894 91.3484ZM424.361 91.3484H425.524V98.226H424.361V91.3484ZM424.948 90.2354C424.74 90.2354 424.561 90.1646 424.411 90.0229C424.261 89.8728 424.186 89.6936 424.186 89.4852C424.186 89.2767 424.261 89.0975 424.411 88.9475C424.561 88.7974 424.74 88.7224 424.948 88.7224C425.157 88.7224 425.332 88.7974 425.474 88.9475C425.624 89.0975 425.699 89.2767 425.699 89.4852C425.699 89.6936 425.624 89.8728 425.474 90.0229C425.332 90.1646 425.157 90.2354 424.948 90.2354ZM429.842 98.376C429.2 98.376 428.621 98.2176 428.104 97.9008C427.596 97.584 427.195 97.1547 426.904 96.6128C426.612 96.071 426.466 95.4749 426.466 94.8247C426.466 94.1661 426.612 93.5659 426.904 93.024C427.195 92.4821 427.596 92.057 428.104 91.7485C428.621 91.4317 429.2 91.2733 429.842 91.2733C430.601 91.2733 431.222 91.4734 431.705 91.8736C432.189 92.2654 432.552 92.7989 432.793 93.4742L431.705 93.7618C431.505 93.3033 431.255 92.9573 430.955 92.7239C430.663 92.4821 430.288 92.3612 429.83 92.3612C429.405 92.3612 429.029 92.4696 428.704 92.6864C428.379 92.8948 428.129 93.1866 427.954 93.5617C427.779 93.9285 427.691 94.3412 427.691 94.7997C427.691 95.2498 427.779 95.6583 427.954 96.0251C428.129 96.3919 428.379 96.6837 428.704 96.9005C429.029 97.1089 429.405 97.2131 429.83 97.2131C430.313 97.2131 430.709 97.0839 431.018 96.8254C431.334 96.5587 431.555 96.196 431.68 95.7375H432.918C432.852 96.246 432.681 96.7004 432.406 97.1005C432.131 97.4923 431.772 97.805 431.33 98.0384C430.888 98.2635 430.392 98.376 429.842 98.376ZM436.838 98.376C436.196 98.376 435.625 98.2343 435.125 97.9508C434.624 97.6591 434.233 97.2422 433.949 96.7004C433.674 96.1585 433.537 95.5166 433.537 94.7747C433.537 94.1161 433.674 93.5283 433.949 93.0115C434.224 92.4863 434.599 92.0778 435.075 91.786C435.55 91.4942 436.079 91.3484 436.663 91.3484C437.646 91.3484 438.413 91.6485 438.964 92.2487C439.522 92.8406 439.801 93.6701 439.801 94.7371C439.801 94.9372 439.793 95.0914 439.776 95.1998H434.737C434.787 95.8167 434.995 96.3211 435.362 96.7129C435.729 97.0964 436.221 97.2881 436.838 97.2881C437.271 97.2881 437.646 97.1631 437.963 96.913C438.288 96.6629 438.522 96.3169 438.663 95.8751H439.776C439.551 96.6837 439.193 97.3048 438.701 97.7383C438.209 98.1634 437.588 98.376 436.838 98.376ZM438.613 94.2244C438.58 93.6159 438.388 93.1574 438.038 92.8489C437.688 92.5321 437.234 92.3737 436.675 92.3737C436.167 92.3737 435.733 92.5363 435.375 92.8614C435.025 93.1866 434.829 93.6409 434.787 94.2244H438.613ZM443.13 98.401C442.663 98.401 442.246 98.3218 441.879 98.1634C441.521 98.005 441.225 97.8008 440.991 97.5507C440.758 97.3006 440.587 97.0297 440.479 96.7379L441.554 96.4503C441.737 96.7671 441.95 97.0047 442.192 97.1631C442.434 97.3131 442.75 97.3881 443.142 97.3881C443.517 97.3881 443.826 97.3048 444.067 97.138C444.318 96.9713 444.443 96.7296 444.443 96.4128C444.443 96.071 444.309 95.825 444.042 95.675C443.784 95.5166 443.409 95.3874 442.917 95.2873C442.909 95.279 442.9 95.2748 442.892 95.2748C442.892 95.2748 442.888 95.2748 442.88 95.2748C442.171 95.1415 441.625 94.9289 441.241 94.6371C440.858 94.337 440.666 93.891 440.666 93.2991C440.666 92.8906 440.766 92.528 440.966 92.2112C441.175 91.8861 441.458 91.6318 441.817 91.4484C442.183 91.2567 442.596 91.1608 443.055 91.1608C443.713 91.1608 444.247 91.3025 444.655 91.586C445.072 91.8611 445.36 92.2154 445.518 92.6489L444.63 92.949C444.38 92.6405 444.142 92.4279 443.917 92.3112C443.692 92.1945 443.405 92.1362 443.055 92.1362C442.679 92.1362 442.371 92.2404 442.129 92.4488C441.896 92.6489 441.779 92.8989 441.779 93.1991C441.779 93.4492 441.862 93.6534 442.029 93.8118C442.204 93.9618 442.479 94.0786 442.854 94.1619L443.505 94.2995C444.222 94.4412 444.747 94.6871 445.08 95.0373C445.422 95.3874 445.593 95.8 445.593 96.2752C445.593 96.642 445.497 96.9922 445.305 97.3256C445.114 97.6507 444.83 97.9133 444.455 98.1134C444.088 98.3051 443.646 98.401 443.13 98.401ZM449.923 92.4488H449.147V91.3484H449.923V90.5731C449.923 90.1896 450.006 89.8478 450.173 89.5477C450.34 89.2476 450.581 89.0141 450.898 88.8474C451.223 88.6807 451.602 88.5973 452.036 88.5973H452.624V89.6477H452.261C451.903 89.6477 451.619 89.7269 451.411 89.8853C451.211 90.0354 451.111 90.2646 451.111 90.5731V91.3484H452.624V92.4488H451.111V98.226H449.935L449.923 92.4488ZM456.267 98.301C455.608 98.301 455.025 98.1509 454.516 97.8508C454.016 97.5424 453.629 97.1255 453.353 96.6003C453.078 96.0751 452.941 95.4833 452.941 94.8247C452.941 94.1744 453.078 93.5867 453.353 93.0615C453.637 92.528 454.029 92.1111 454.529 91.811C455.029 91.5026 455.608 91.3484 456.267 91.3484C456.909 91.3484 457.48 91.5026 457.98 91.811C458.489 92.1195 458.885 92.5405 459.168 93.074C459.452 93.5992 459.593 94.1828 459.593 94.8247C459.593 95.4749 459.452 96.0668 459.168 96.6003C458.893 97.1255 458.501 97.5424 457.993 97.8508C457.484 98.1509 456.909 98.301 456.267 98.301ZM456.255 97.1505C456.671 97.1505 457.038 97.0463 457.355 96.8379C457.68 96.6295 457.93 96.3502 458.105 96.0001C458.28 95.6416 458.368 95.2498 458.368 94.8247C458.368 94.3995 458.28 94.0077 458.105 93.6492C457.93 93.2908 457.68 93.0115 457.355 92.8114C457.038 92.603 456.671 92.4988 456.255 92.4988C455.829 92.4988 455.458 92.603 455.142 92.8114C454.825 93.0115 454.579 93.2908 454.404 93.6492C454.237 93.9994 454.154 94.3912 454.154 94.8247C454.154 95.2582 454.237 95.65 454.404 96.0001C454.579 96.3502 454.825 96.6295 455.142 96.8379C455.458 97.0463 455.829 97.1505 456.255 97.1505ZM460.579 91.3484H461.854L461.704 92.5863C461.938 92.2695 462.184 92.0194 462.442 91.836C462.701 91.6526 462.951 91.5276 463.192 91.4609C463.434 91.3859 463.697 91.3484 463.98 91.3484H464.305V92.4488H463.98C463.247 92.4488 462.692 92.6572 462.317 93.074C461.95 93.4825 461.767 94.1119 461.767 94.9622V98.226H460.579V91.3484ZM471.205 89.2226H472.605L476.319 98.226H475.081L474.131 95.8751H469.679L468.716 98.226H467.491L471.205 89.2226ZM473.643 94.7371L471.905 90.5856L470.154 94.7371H473.643ZM477.443 89.2226H478.606V98.226H477.443V89.2226ZM479.849 89.2226H481.012V98.226H479.849V89.2226Z" fill="#262A2E"/>
<rect x="397.48" y="108.729" width="97.6181" height="5.00188" rx="1.25047" fill="#E1E3E8"/>
<rect x="397.48" y="116.232" width="78.0757" height="5.00188" rx="1.25047" fill="#E1E3E8"/>
<rect x="397.48" y="128.736" width="42.9037" height="12.101" rx="6.05051" fill="#66A9FF"/>
<rect x="397.481" y="159.133" width="115" height="80" rx="5.00188" fill="#F7F8F9"/>
<g opacity="0.4">
<path d="M467.664 188.113H443.592C443.012 188.113 442.455 188.343 442.045 188.754C441.635 189.164 441.404 189.721 441.404 190.301V209.996C441.404 210.577 441.635 211.133 442.045 211.544C442.455 211.954 443.012 212.185 443.592 212.185H467.664C468.245 212.185 468.801 211.954 469.212 211.544C469.622 211.133 469.853 210.577 469.853 209.996V190.301C469.853 189.721 469.622 189.164 469.212 188.754C468.801 188.343 468.245 188.113 467.664 188.113ZM459.458 194.678C459.783 194.678 460.1 194.774 460.37 194.955C460.64 195.135 460.85 195.391 460.974 195.691C461.099 195.991 461.131 196.321 461.068 196.639C461.004 196.958 460.848 197.25 460.619 197.48C460.389 197.709 460.097 197.866 459.778 197.929C459.46 197.992 459.13 197.96 458.83 197.836C458.53 197.711 458.274 197.501 458.093 197.231C457.913 196.961 457.817 196.644 457.817 196.319C457.817 195.884 457.99 195.466 458.297 195.159C458.605 194.851 459.023 194.678 459.458 194.678ZM443.592 209.996V206.167L450.705 199.055L461.646 209.996H443.592ZM467.664 209.996H464.742L459.818 205.073L462.553 202.337L467.664 207.45V209.996Z" fill="#CFD1D4"/>
</g>
<rect x="396.986" y="37.3721" width="29" height="9" rx="1" fill="#E1E3E8"/>
<rect x="499.413" y="39.5155" width="13.0684" height="1.30684" rx="0.653422" fill="#4D545C"/>
<rect x="499.413" y="43.436" width="13.0684" height="1.30684" rx="0.653422" fill="#4D545C"/>
<path d="M432.111 14.0325H475.237V18.4872C475.237 21.8009 472.551 24.4872 469.237 24.4872H438.111C434.798 24.4872 432.111 21.8009 432.111 18.4872V14.0325Z" fill="#0D0D0D"/>
</g>
<rect x="386.986" y="12.0325" width="136.513" height="224.853" rx="12.4546" stroke="#0D0D0D" stroke-width="4"/>
</g>
<defs>
<filter id="filter0_dd_183_27274" x="0.284749" y="35.6702" width="438.118" height="280.711" filterUnits="userSpaceOnUse" color-interpolation-filters="sRGB">
<feFlood flood-opacity="0" result="BackgroundImageFix"/>
<feColorMatrix in="SourceAlpha" type="matrix" values="0 0 0 0 0 0 0 0 0 0 0 0 0 0 0 0 0 0 127 0" result="hardAlpha"/>
<feMorphology radius="3.26903" operator="erode" in="SourceAlpha" result="effect1_dropShadow_183_27274"/>
<feOffset dy="6.53805"/>
<feGaussianBlur stdDeviation="9.80708"/>
<feColorMatrix type="matrix" values="0 0 0 0 0.0941176 0 0 0 0 0.152941 0 0 0 0 0.294118 0 0 0 0.1 0"/>
<feBlend mode="normal" in2="BackgroundImageFix" result="effect1_dropShadow_183_27274"/>
<feColorMatrix in="SourceAlpha" type="matrix" values="0 0 0 0 0 0 0 0 0 0 0 0 0 0 0 0 0 0 127 0" result="hardAlpha"/>
<feMorphology radius="4.90354" operator="erode" in="SourceAlpha" result="effect2_dropShadow_183_27274"/>
<feOffset dy="4.90354"/>
<feGaussianBlur stdDeviation="4.90354"/>
<feColorMatrix type="matrix" values="0 0 0 0 0.0941176 0 0 0 0 0.152941 0 0 0 0 0.294118 0 0 0 0.12 0"/>
<feBlend mode="normal" in2="effect1_dropShadow_183_27274" result="effect2_dropShadow_183_27274"/>
<feBlend mode="normal" in="SourceGraphic" in2="effect2_dropShadow_183_27274" result="shape"/>
</filter>
<filter id="filter1_i_183_27274" x="24.4629" y="52.4388" width="5.021" height="5.22192" filterUnits="userSpaceOnUse" color-interpolation-filters="sRGB">
<feFlood flood-opacity="0" result="BackgroundImageFix"/>
<feBlend mode="normal" in="SourceGraphic" in2="BackgroundImageFix" result="shape"/>
<feColorMatrix in="SourceAlpha" type="matrix" values="0 0 0 0 0 0 0 0 0 0 0 0 0 0 0 0 0 0 127 0" result="hardAlpha"/>
<feOffset/>
<feGaussianBlur stdDeviation="0.940559"/>
<feComposite in2="hardAlpha" operator="arithmetic" k2="-1" k3="1"/>
<feColorMatrix type="matrix" values="0 0 0 0 0.92549 0 0 0 0 0.427451 0 0 0 0 0.384314 0 0 0 1 0"/>
<feBlend mode="normal" in2="shape" result="effect1_innerShadow_183_27274"/>
</filter>
<filter id="filter2_i_183_27274" x="32.8315" y="52.4388" width="5.021" height="5.22192" filterUnits="userSpaceOnUse" color-interpolation-filters="sRGB">
<feFlood flood-opacity="0" result="BackgroundImageFix"/>
<feBlend mode="normal" in="SourceGraphic" in2="BackgroundImageFix" result="shape"/>
<feColorMatrix in="SourceAlpha" type="matrix" values="0 0 0 0 0 0 0 0 0 0 0 0 0 0 0 0 0 0 127 0" result="hardAlpha"/>
<feOffset/>
<feGaussianBlur stdDeviation="0.940559"/>
<feComposite in2="hardAlpha" operator="arithmetic" k2="-1" k3="1"/>
<feColorMatrix type="matrix" values="0 0 0 0 0.960784 0 0 0 0 0.768627 0 0 0 0 0.317647 0 0 0 1 0"/>
<feBlend mode="normal" in2="shape" result="effect1_innerShadow_183_27274"/>
</filter>
<filter id="filter3_i_183_27274" x="41.2002" y="52.4388" width="5.021" height="5.22192" filterUnits="userSpaceOnUse" color-interpolation-filters="sRGB">
<feFlood flood-opacity="0" result="BackgroundImageFix"/>
<feBlend mode="normal" in="SourceGraphic" in2="BackgroundImageFix" result="shape"/>
<feColorMatrix in="SourceAlpha" type="matrix" values="0 0 0 0 0 0 0 0 0 0 0 0 0 0 0 0 0 0 127 0" result="hardAlpha"/>
<feOffset/>
<feGaussianBlur stdDeviation="0.940559"/>
<feComposite in2="hardAlpha" operator="arithmetic" k2="-1" k3="1"/>
<feColorMatrix type="matrix" values="0 0 0 0 0.407843 0 0 0 0 0.8 0 0 0 0 0.345098 0 0 0 1 0"/>
<feBlend mode="normal" in2="shape" result="effect1_innerShadow_183_27274"/>
</filter>
<filter id="filter4_dd_183_27274" x="368.641" y="0.22539" width="173.203" height="261.544" filterUnits="userSpaceOnUse" color-interpolation-filters="sRGB">
<feFlood flood-opacity="0" result="BackgroundImageFix"/>
<feColorMatrix in="SourceAlpha" type="matrix" values="0 0 0 0 0 0 0 0 0 0 0 0 0 0 0 0 0 0 127 0" result="hardAlpha"/>
<feMorphology radius="3.26903" operator="erode" in="SourceAlpha" result="effect1_dropShadow_183_27274"/>
<feOffset dy="6.53805"/>
<feGaussianBlur stdDeviation="9.80708"/>
<feColorMatrix type="matrix" values="0 0 0 0 0.0941176 0 0 0 0 0.152941 0 0 0 0 0.294118 0 0 0 0.2 0"/>
<feBlend mode="normal" in2="BackgroundImageFix" result="effect1_dropShadow_183_27274"/>
<feColorMatrix in="SourceAlpha" type="matrix" values="0 0 0 0 0 0 0 0 0 0 0 0 0 0 0 0 0 0 127 0" result="hardAlpha"/>
<feMorphology radius="4.90354" operator="erode" in="SourceAlpha" result="effect2_dropShadow_183_27274"/>
<feOffset dy="4.90354"/>
<feGaussianBlur stdDeviation="4.90354"/>
<feColorMatrix type="matrix" values="0 0 0 0 0.0941176 0 0 0 0 0.152941 0 0 0 0 0.294118 0 0 0 0.12 0"/>
<feBlend mode="normal" in2="effect1_dropShadow_183_27274" result="effect2_dropShadow_183_27274"/>
<feBlend mode="normal" in="SourceGraphic" in2="effect2_dropShadow_183_27274" result="shape"/>
</filter>
<clipPath id="clip0_183_27274">
<rect x="17.5" y="46.3477" width="403.687" height="246.28" rx="7.11471" fill="white"/>
</clipPath>
<clipPath id="clip1_183_27274">
<rect x="388.986" y="14.0325" width="132.513" height="220.853" rx="10.4546" fill="white"/>
</clipPath>
</defs>
</svg>
